<?xml version="1.0" encoding="utf-8"?>
<svg version="1.1" id="Layer_1" xmlns="http://www.w3.org/2000/svg" x="0px" y="0px" width="3375px" viewBox="0 0 3375 3375" enable-background="new 0 0 3375 3375" xmlns:bx="https://boxy-svg.com" height="3375px"><defs><bx:export><bx:file format="html" excluded="true"/><bx:file format="svg"/></bx:export></defs><path fill="#FABF44" opacity="1.000000" stroke="none" d=" M1228.848877,1388.446777 C1249.999268,1380.603882 1270.314819,1383.201904 1290.363403,1389.442749 C1301.794189,1393.000977 1312.769165,1398.004761 1324.152466,1401.738281 C1344.382446,1408.373535 1364.754517,1414.578613 1385.102783,1420.847900 C1387.614746,1421.621704 1390.335083,1421.936401 1392.975342,1422.038818 C1405.953003,1422.542358 1418.935913,1423.176758 1431.917358,1423.185059 C1437.502319,1423.188599 1443.326294,1422.552979 1448.633545,1420.898193 C1476.288208,1412.276123 1504.008911,1403.755127 1530.576782,1392.075439 C1538.468384,1388.606079 1546.178345,1384.507812 1553.440186,1379.866455 C1569.136719,1369.834106 1585.334839,1360.311523 1599.775513,1348.656982 C1619.206909,1332.974365 1636.850952,1315.099365 1652.084839,1295.199951 C1657.482910,1288.148682 1661.246948,1279.789185 1665.358032,1271.821045 C1675.571045,1252.026123 1685.297607,1232.213013 1692.374634,1210.785889 C1699.877808,1188.068359 1702.957275,1164.743774 1706.715942,1141.584595 C1709.118896,1126.778564 1706.871460,1111.054810 1705.511963,1095.849487 C1704.270020,1081.958618 1702.501831,1067.927002 1698.969971,1054.481689 C1695.448486,1041.075928 1689.514160,1028.295776 1684.484375,1015.300842 C1683.289673,1012.214294 1681.149170,1009.487549 1680.008667,1006.387451 C1663.584717,961.749817 1632.499756,928.318359 1597.350098,897.977661 C1577.775757,881.081604 1555.986572,867.661926 1532.370361,857.266785 C1524.784180,853.927551 1516.769775,851.555176 1508.929810,848.802002 C1506.419922,847.920654 1503.636353,847.622803 1501.326538,846.399780 C1487.413330,839.032837 1472.495728,836.839905 1456.946899,836.267883 C1444.674927,835.816406 1432.489136,833.237915 1420.213379,832.597839 C1410.971069,832.115906 1401.610596,832.823730 1392.366943,833.687744 C1377.449097,835.082031 1362.621948,837.587402 1347.687012,838.626160 C1327.880371,840.003784 1310.118652,847.399597 1292.816772,856.068970 C1283.936401,860.518677 1275.810791,866.479980 1267.372070,871.802734 C1263.993652,873.933716 1260.885742,876.586548 1257.321533,878.314819 C1235.162476,889.059937 1219.046875,906.999207 1202.946655,924.677856 C1191.547363,937.194580 1180.521973,950.362976 1171.415039,964.576660 C1160.315796,981.899719 1151.313232,1000.575928 1141.636719,1018.790588 C1140.117554,1021.650269 1139.952881,1025.203369 1138.949463,1028.368530 C1136.847900,1034.998047 1134.594727,1041.579468 1132.424072,1048.187256 C1131.283203,1051.660278 1129.675171,1055.072876 1129.154785,1058.640747 C1126.801392,1074.775757 1124.443481,1090.923828 1122.769043,1107.137573 C1122.127563,1113.348633 1123.216309,1119.753662 1123.668457,1126.059448 C1125.337646,1149.342529 1127.505981,1172.548218 1134.789795,1194.929443 C1142.393066,1218.292969 1138.441406,1240.284302 1126.735474,1261.296509 C1125.449951,1263.604004 1123.946533,1265.892700 1122.120605,1267.780151 C1108.453125,1281.908813 1094.540649,1295.802246 1080.982056,1310.033447 C1069.885864,1321.680054 1054.864502,1324.680298 1040.418823,1327.754883 C1020.411499,1332.013184 999.905518,1331.093628 979.790527,1327.551147 C973.456177,1326.435547 966.795349,1323.443970 961.757507,1319.451660 C950.305481,1310.376221 939.077454,1300.742920 934.252197,1285.991455 C933.225952,1282.853882 931.591003,1279.870850 929.931030,1276.992676 C921.815674,1262.922485 922.574158,1248.555542 930.379700,1235.125000 C935.840759,1225.728516 943.070984,1217.232910 950.292114,1209.021973 C957.758972,1200.531738 965.946777,1192.632568 974.228943,1184.914429 C982.779358,1176.946411 987.674316,1166.834106 992.481018,1156.553345 C995.061096,1151.034790 994.533142,1145.573364 992.691345,1140.024292 C987.330383,1123.872681 976.380188,1111.959106 963.376587,1101.710571 C954.743652,1094.906494 945.565674,1088.781250 937.075317,1081.811646 C921.538757,1069.057983 913.841553,1052.621094 913.571960,1032.246460 C913.175598,1002.294556 940.969727,965.668884 981.048828,962.486633 C989.341736,961.828186 997.605042,960.805603 1005.893433,960.080872 C1022.646545,958.616150 1034.108887,950.370728 1041.448730,934.978271 C1050.396851,916.213562 1047.740112,898.823486 1037.970093,881.577271 C1034.363647,875.210999 1031.102661,868.636841 1027.262573,862.417725 C1019.348389,849.600098 1019.410706,835.089966 1018.142395,820.884949 C1017.887268,818.027222 1018.752869,814.899780 1019.748718,812.129272 C1024.207275,799.724915 1030.619141,788.230591 1040.748291,779.800354 C1049.132202,772.822693 1058.571167,766.911560 1068.175659,761.692505 C1072.536011,759.323120 1078.643555,758.429138 1083.578491,759.224182 C1093.367554,760.801208 1103.032104,763.586365 1112.490845,766.663513 C1123.560547,770.264648 1134.204590,775.193787 1145.308594,778.665771 C1159.129272,782.987061 1172.899536,781.716675 1183.996704,772.013123 C1195.274780,762.151245 1205.418213,750.886353 1207.100586,734.781738 C1208.035034,725.836792 1209.189087,716.888184 1209.522217,707.914429 C1209.849365,699.099915 1212.200684,690.999451 1215.031128,682.715698 C1220.877930,665.603943 1233.608154,654.501831 1247.280884,644.388306 C1262.324463,633.260986 1279.533447,632.990112 1297.041016,637.124084 C1316.497314,641.718079 1331.681274,651.693054 1340.551025,670.502380 C1346.139526,682.353027 1355.013916,691.996887 1364.462891,701.056885 C1370.068237,706.431458 1376.301147,709.522095 1384.244385,708.612610 C1387.880737,708.196350 1391.551147,707.977661 1395.211304,707.891541 C1401.576172,707.741821 1406.335327,704.839783 1411.092773,700.665222 C1425.099976,688.374023 1434.312988,672.423218 1445.261597,657.775879 C1449.417114,652.216614 1454.095459,646.928040 1459.179199,642.209473 C1468.005981,634.016541 1478.158081,629.304260 1490.863770,630.326172 C1501.461426,631.178467 1512.193970,630.813049 1522.844604,630.406799 C1531.444824,630.078613 1538.817993,632.787842 1546.705811,636.004272 C1564.342407,643.195984 1571.813965,658.017944 1578.255615,673.922363 C1579.697998,677.483826 1579.737183,681.746155 1579.822144,685.698730 C1580.037231,695.693848 1580.066406,705.699524 1579.863525,715.694702 C1579.741699,721.691895 1581.593506,726.603882 1585.477173,731.200928 C1602.722168,751.613708 1622.701660,757.134644 1647.708862,747.017761 C1666.007568,739.615051 1684.409912,732.975403 1704.068481,730.289673 C1725.886353,727.308838 1745.315063,731.582275 1760.094727,749.105164 C1763.442505,753.074280 1765.710815,758.008728 1768.149170,762.669800 C1769.679321,765.594788 1770.228882,769.050049 1771.855713,771.904175 C1780.596313,787.240112 1780.136719,803.206604 1774.784668,819.229614 C1772.266235,826.768982 1768.324463,833.835999 1764.982300,841.096069 C1762.476074,846.540527 1759.775269,851.898376 1757.378540,857.389709 C1753.461060,866.365601 1754.794434,874.766296 1759.823608,883.096313 C1766.864990,894.759949 1776.277710,903.946960 1787.472778,911.469910 C1792.893188,915.112366 1798.897827,916.463806 1805.425049,916.710327 C1815.051025,917.073914 1824.693115,917.725220 1834.257812,918.852600 C1855.937988,921.408020 1873.008667,932.291260 1886.601318,948.986023 C1894.633545,958.851685 1895.434692,971.020874 1896.823853,982.911072 C1897.284912,986.857544 1896.977661,990.902832 1896.905029,994.900818 C1896.661377,1008.334473 1893.286865,1020.613098 1883.443237,1030.399292 C1876.364014,1037.437134 1869.126099,1044.317505 1862.124634,1051.431152 C1853.727417,1059.963135 1845.622681,1068.784424 1837.177124,1077.267212 C1827.852783,1086.632568 1828.795044,1110.433838 1838.465332,1119.795532 C1844.679932,1125.812012 1850.157959,1132.581543 1856.189209,1138.797119 C1863.421143,1146.250244 1871.426270,1152.611328 1881.114136,1156.845459 C1891.891113,1161.555786 1900.089722,1169.072754 1904.049194,1180.570190 C1904.694214,1182.443359 1905.610229,1184.282593 1906.711426,1185.930176 C1915.612671,1199.248535 1914.877930,1212.618408 1907.647095,1226.409424 C1905.205322,1231.066528 1904.344604,1236.528076 1902.173584,1241.357788 C1898.649902,1249.197144 1895.250854,1257.203369 1890.685181,1264.435913 C1884.791992,1273.771851 1876.117065,1279.755371 1864.923706,1281.835938 C1851.825073,1284.270874 1838.779663,1286.998779 1825.733276,1289.706177 C1806.699829,1293.655762 1793.053833,1304.177612 1786.269165,1322.729248 C1785.145020,1325.802856 1783.830322,1329.327271 1784.307739,1332.376587 C1786.511841,1346.456543 1787.845215,1360.804565 1796.845093,1372.928711 C1811.430054,1392.576904 1815.209717,1414.587036 1810.374146,1438.385620 C1808.800903,1446.128296 1805.807617,1452.862793 1800.122803,1458.505127 C1792.080322,1466.487549 1784.390991,1474.671265 1773.769531,1479.597656 C1758.311890,1486.767090 1742.380859,1488.520996 1726.022339,1484.533569 C1715.044800,1481.857788 1704.381104,1477.912842 1693.528564,1474.699097 C1687.471680,1472.905640 1681.319458,1471.432007 1675.203735,1469.839233 C1663.804565,1466.870239 1654.378906,1470.385498 1645.861450,1478.135376 C1631.281616,1491.401489 1624.649292,1508.378540 1622.083862,1527.344116 C1621.594727,1530.960327 1621.400024,1534.691284 1621.676270,1538.323242 C1622.978394,1555.443481 1615.861694,1570.159058 1608.685913,1584.872559 C1607.963623,1586.353638 1607.139160,1587.949219 1605.935791,1589.006226 C1590.574097,1602.498413 1574.163208,1613.588867 1552.222168,1610.817993 C1534.452637,1608.573975 1517.516602,1604.441528 1504.263672,1590.953003 C1498.500854,1585.087769 1493.640259,1579.082764 1492.653809,1570.605591 C1491.770630,1563.015869 1487.488892,1559.175537 1479.856689,1557.509399 C1471.784546,1555.747192 1463.815430,1552.995605 1456.212402,1549.721558 C1444.312256,1544.597168 1433.155273,1544.855835 1421.761108,1551.180542 C1401.147705,1562.622803 1382.819336,1576.873901 1367.760620,1594.999634 C1349.625732,1616.827881 1323.348145,1623.321777 1297.758179,1611.356445 C1290.539307,1607.981079 1283.328003,1604.341675 1276.761597,1599.871094 C1264.286499,1591.378174 1257.340698,1578.957642 1254.653564,1564.303589 C1252.491211,1552.511108 1251.106567,1540.578247 1249.151245,1528.744873 C1248.340454,1523.838623 1247.624634,1518.718018 1245.598755,1514.272095 C1243.898071,1510.540039 1241.006348,1506.378662 1237.522339,1504.597046 C1221.299194,1496.301147 1204.241211,1492.628418 1186.445190,1499.461548 C1178.999878,1502.320312 1171.978394,1506.284668 1164.529053,1509.130981 C1153.370239,1513.394897 1142.048828,1517.253052 1130.696167,1520.977783 C1127.591919,1521.996338 1124.139648,1522.055664 1120.828247,1522.320435 C1113.389648,1522.915161 1106.610107,1521.558716 1103.137695,1514.028931 C1099.729736,1506.639038 1102.450195,1500.422485 1107.871826,1495.071777 C1114.512451,1488.518188 1120.884644,1481.654053 1127.898193,1475.525269 C1142.689331,1462.599854 1158.071045,1450.344849 1172.732056,1437.278198 C1183.416138,1427.756104 1193.023193,1417.026123 1203.700195,1407.495361 C1211.337158,1400.678467 1219.951416,1394.956299 1228.848877,1388.446777 z"/></svg>