<svg xmlns="http://www.w3.org/2000/svg" width="200" height="200" viewBox="500 500 1200 2200">
  <!-- <style>
    @keyframes spin { 
      from { transform: rotate(0deg); } 
      to { transform: rotate(360deg); } 
    }
    #gear1 { 
      animation: spin 6s linear infinite; 
      transform-origin: 85px 100px; /* center of gear1 */
    }
    #gear2 { 
      animation: spin 6s linear infinite reverse; 
      transform-origin: 250px 100px; /* center of gear2 */
    }
    #gear3 { 
      animation: spin 6s linear infinite; 
      transform-origin: 415px 100px; /* center of gear3 */
    }
  </style> -->
  <style>
  @keyframes spin {
    to { transform: rotate(360deg); }
  }

  /* Make transform-origin relative to each gear's own box */
  #gear1, #gear2, #gear3 {
    transform-box: fill-box;     
    transform-origin: center;   
    animation: spin 2s linear infinite;
  }

  /* Counter-rotate the middle gear */
  #gear2 { animation-direction: reverse; }
</style>


  <!-- Left Gear -->
  <g id="gear1" fill="none" stroke="black" stroke-width="2">
    <path fill="#FABF44" opacity="1.000000" stroke="none" d=" M1228.848877,1388.446777 C1249.999268,1380.603882 1270.314819,1383.201904 1290.363403,1389.442749 C1301.794189,1393.000977 1312.769165,1398.004761 1324.152466,1401.738281 C1344.382446,1408.373535 1364.754517,1414.578613 1385.102783,1420.847900 C1387.614746,1421.621704 1390.335083,1421.936401 1392.975342,1422.038818 C1405.953003,1422.542358 1418.935913,1423.176758 1431.917358,1423.185059 C1437.502319,1423.188599 1443.326294,1422.552979 1448.633545,1420.898193 C1476.288208,1412.276123 1504.008911,1403.755127 1530.576782,1392.075439 C1538.468384,1388.606079 1546.178345,1384.507812 1553.440186,1379.866455 C1569.136719,1369.834106 1585.334839,1360.311523 1599.775513,1348.656982 C1619.206909,1332.974365 1636.850952,1315.099365 1652.084839,1295.199951 C1657.482910,1288.148682 1661.246948,1279.789185 1665.358032,1271.821045 C1675.571045,1252.026123 1685.297607,1232.213013 1692.374634,1210.785889 C1699.877808,1188.068359 1702.957275,1164.743774 1706.715942,1141.584595 C1709.118896,1126.778564 1706.871460,1111.054810 1705.511963,1095.849487 C1704.270020,1081.958618 1702.501831,1067.927002 1698.969971,1054.481689 C1695.448486,1041.075928 1689.514160,1028.295776 1684.484375,1015.300842 C1683.289673,1012.214294 1681.149170,1009.487549 1680.008667,1006.387451 C1663.584717,961.749817 1632.499756,928.318359 1597.350098,897.977661 C1577.775757,881.081604 1555.986572,867.661926 1532.370361,857.266785 C1524.784180,853.927551 1516.769775,851.555176 1508.929810,848.802002 C1506.419922,847.920654 1503.636353,847.622803 1501.326538,846.399780 C1487.413330,839.032837 1472.495728,836.839905 1456.946899,836.267883 C1444.674927,835.816406 1432.489136,833.237915 1420.213379,832.597839 C1410.971069,832.115906 1401.610596,832.823730 1392.366943,833.687744 C1377.449097,835.082031 1362.621948,837.587402 1347.687012,838.626160 C1327.880371,840.003784 1310.118652,847.399597 1292.816772,856.068970 C1283.936401,860.518677 1275.810791,866.479980 1267.372070,871.802734 C1263.993652,873.933716 1260.885742,876.586548 1257.321533,878.314819 C1235.162476,889.059937 1219.046875,906.999207 1202.946655,924.677856 C1191.547363,937.194580 1180.521973,950.362976 1171.415039,964.576660 C1160.315796,981.899719 1151.313232,1000.575928 1141.636719,1018.790588 C1140.117554,1021.650269 1139.952881,1025.203369 1138.949463,1028.368530 C1136.847900,1034.998047 1134.594727,1041.579468 1132.424072,1048.187256 C1131.283203,1051.660278 1129.675171,1055.072876 1129.154785,1058.640747 C1126.801392,1074.775757 1124.443481,1090.923828 1122.769043,1107.137573 C1122.127563,1113.348633 1123.216309,1119.753662 1123.668457,1126.059448 C1125.337646,1149.342529 1127.505981,1172.548218 1134.789795,1194.929443 C1142.393066,1218.292969 1138.441406,1240.284302 1126.735474,1261.296509 C1125.449951,1263.604004 1123.946533,1265.892700 1122.120605,1267.780151 C1108.453125,1281.908813 1094.540649,1295.802246 1080.982056,1310.033447 C1069.885864,1321.680054 1054.864502,1324.680298 1040.418823,1327.754883 C1020.411499,1332.013184 999.905518,1331.093628 979.790527,1327.551147 C973.456177,1326.435547 966.795349,1323.443970 961.757507,1319.451660 C950.305481,1310.376221 939.077454,1300.742920 934.252197,1285.991455 C933.225952,1282.853882 931.591003,1279.870850 929.931030,1276.992676 C921.815674,1262.922485 922.574158,1248.555542 930.379700,1235.125000 C935.840759,1225.728516 943.070984,1217.232910 950.292114,1209.021973 C957.758972,1200.531738 965.946777,1192.632568 974.228943,1184.914429 C982.779358,1176.946411 987.674316,1166.834106 992.481018,1156.553345 C995.061096,1151.034790 994.533142,1145.573364 992.691345,1140.024292 C987.330383,1123.872681 976.380188,1111.959106 963.376587,1101.710571 C954.743652,1094.906494 945.565674,1088.781250 937.075317,1081.811646 C921.538757,1069.057983 913.841553,1052.621094 913.571960,1032.246460 C913.175598,1002.294556 940.969727,965.668884 981.048828,962.486633 C989.341736,961.828186 997.605042,960.805603 1005.893433,960.080872 C1022.646545,958.616150 1034.108887,950.370728 1041.448730,934.978271 C1050.396851,916.213562 1047.740112,898.823486 1037.970093,881.577271 C1034.363647,875.210999 1031.102661,868.636841 1027.262573,862.417725 C1019.348389,849.600098 1019.410706,835.089966 1018.142395,820.884949 C1017.887268,818.027222 1018.752869,814.899780 1019.748718,812.129272 C1024.207275,799.724915 1030.619141,788.230591 1040.748291,779.800354 C1049.132202,772.822693 1058.571167,766.911560 1068.175659,761.692505 C1072.536011,759.323120 1078.643555,758.429138 1083.578491,759.224182 C1093.367554,760.801208 1103.032104,763.586365 1112.490845,766.663513 C1123.560547,770.264648 1134.204590,775.193787 1145.308594,778.665771 C1159.129272,782.987061 1172.899536,781.716675 1183.996704,772.013123 C1195.274780,762.151245 1205.418213,750.886353 1207.100586,734.781738 C1208.035034,725.836792 1209.189087,716.888184 1209.522217,707.914429 C1209.849365,699.099915 1212.200684,690.999451 1215.031128,682.715698 C1220.877930,665.603943 1233.608154,654.501831 1247.280884,644.388306 C1262.324463,633.260986 1279.533447,632.990112 1297.041016,637.124084 C1316.497314,641.718079 1331.681274,651.693054 1340.551025,670.502380 C1346.139526,682.353027 1355.013916,691.996887 1364.462891,701.056885 C1370.068237,706.431458 1376.301147,709.522095 1384.244385,708.612610 C1387.880737,708.196350 1391.551147,707.977661 1395.211304,707.891541 C1401.576172,707.741821 1406.335327,704.839783 1411.092773,700.665222 C1425.099976,688.374023 1434.312988,672.423218 1445.261597,657.775879 C1449.417114,652.216614 1454.095459,646.928040 1459.179199,642.209473 C1468.005981,634.016541 1478.158081,629.304260 1490.863770,630.326172 C1501.461426,631.178467 1512.193970,630.813049 1522.844604,630.406799 C1531.444824,630.078613 1538.817993,632.787842 1546.705811,636.004272 C1564.342407,643.195984 1571.813965,658.017944 1578.255615,673.922363 C1579.697998,677.483826 1579.737183,681.746155 1579.822144,685.698730 C1580.037231,695.693848 1580.066406,705.699524 1579.863525,715.694702 C1579.741699,721.691895 1581.593506,726.603882 1585.477173,731.200928 C1602.722168,751.613708 1622.701660,757.134644 1647.708862,747.017761 C1666.007568,739.615051 1684.409912,732.975403 1704.068481,730.289673 C1725.886353,727.308838 1745.315063,731.582275 1760.094727,749.105164 C1763.442505,753.074280 1765.710815,758.008728 1768.149170,762.669800 C1769.679321,765.594788 1770.228882,769.050049 1771.855713,771.904175 C1780.596313,787.240112 1780.136719,803.206604 1774.784668,819.229614 C1772.266235,826.768982 1768.324463,833.835999 1764.982300,841.096069 C1762.476074,846.540527 1759.775269,851.898376 1757.378540,857.389709 C1753.461060,866.365601 1754.794434,874.766296 1759.823608,883.096313 C1766.864990,894.759949 1776.277710,903.946960 1787.472778,911.469910 C1792.893188,915.112366 1798.897827,916.463806 1805.425049,916.710327 C1815.051025,917.073914 1824.693115,917.725220 1834.257812,918.852600 C1855.937988,921.408020 1873.008667,932.291260 1886.601318,948.986023 C1894.633545,958.851685 1895.434692,971.020874 1896.823853,982.911072 C1897.284912,986.857544 1896.977661,990.902832 1896.905029,994.900818 C1896.661377,1008.334473 1893.286865,1020.613098 1883.443237,1030.399292 C1876.364014,1037.437134 1869.126099,1044.317505 1862.124634,1051.431152 C1853.727417,1059.963135 1845.622681,1068.784424 1837.177124,1077.267212 C1827.852783,1086.632568 1828.795044,1110.433838 1838.465332,1119.795532 C1844.679932,1125.812012 1850.157959,1132.581543 1856.189209,1138.797119 C1863.421143,1146.250244 1871.426270,1152.611328 1881.114136,1156.845459 C1891.891113,1161.555786 1900.089722,1169.072754 1904.049194,1180.570190 C1904.694214,1182.443359 1905.610229,1184.282593 1906.711426,1185.930176 C1915.612671,1199.248535 1914.877930,1212.618408 1907.647095,1226.409424 C1905.205322,1231.066528 1904.344604,1236.528076 1902.173584,1241.357788 C1898.649902,1249.197144 1895.250854,1257.203369 1890.685181,1264.435913 C1884.791992,1273.771851 1876.117065,1279.755371 1864.923706,1281.835938 C1851.825073,1284.270874 1838.779663,1286.998779 1825.733276,1289.706177 C1806.699829,1293.655762 1793.053833,1304.177612 1786.269165,1322.729248 C1785.145020,1325.802856 1783.830322,1329.327271 1784.307739,1332.376587 C1786.511841,1346.456543 1787.845215,1360.804565 1796.845093,1372.928711 C1811.430054,1392.576904 1815.209717,1414.587036 1810.374146,1438.385620 C1808.800903,1446.128296 1805.807617,1452.862793 1800.122803,1458.505127 C1792.080322,1466.487549 1784.390991,1474.671265 1773.769531,1479.597656 C1758.311890,1486.767090 1742.380859,1488.520996 1726.022339,1484.533569 C1715.044800,1481.857788 1704.381104,1477.912842 1693.528564,1474.699097 C1687.471680,1472.905640 1681.319458,1471.432007 1675.203735,1469.839233 C1663.804565,1466.870239 1654.378906,1470.385498 1645.861450,1478.135376 C1631.281616,1491.401489 1624.649292,1508.378540 1622.083862,1527.344116 C1621.594727,1530.960327 1621.400024,1534.691284 1621.676270,1538.323242 C1622.978394,1555.443481 1615.861694,1570.159058 1608.685913,1584.872559 C1607.963623,1586.353638 1607.139160,1587.949219 1605.935791,1589.006226 C1590.574097,1602.498413 1574.163208,1613.588867 1552.222168,1610.817993 C1534.452637,1608.573975 1517.516602,1604.441528 1504.263672,1590.953003 C1498.500854,1585.087769 1493.640259,1579.082764 1492.653809,1570.605591 C1491.770630,1563.015869 1487.488892,1559.175537 1479.856689,1557.509399 C1471.784546,1555.747192 1463.815430,1552.995605 1456.212402,1549.721558 C1444.312256,1544.597168 1433.155273,1544.855835 1421.761108,1551.180542 C1401.147705,1562.622803 1382.819336,1576.873901 1367.760620,1594.999634 C1349.625732,1616.827881 1323.348145,1623.321777 1297.758179,1611.356445 C1290.539307,1607.981079 1283.328003,1604.341675 1276.761597,1599.871094 C1264.286499,1591.378174 1257.340698,1578.957642 1254.653564,1564.303589 C1252.491211,1552.511108 1251.106567,1540.578247 1249.151245,1528.744873 C1248.340454,1523.838623 1247.624634,1518.718018 1245.598755,1514.272095 C1243.898071,1510.540039 1241.006348,1506.378662 1237.522339,1504.597046 C1221.299194,1496.301147 1204.241211,1492.628418 1186.445190,1499.461548 C1178.999878,1502.320312 1171.978394,1506.284668 1164.529053,1509.130981 C1153.370239,1513.394897 1142.048828,1517.253052 1130.696167,1520.977783 C1127.591919,1521.996338 1124.139648,1522.055664 1120.828247,1522.320435 C1113.389648,1522.915161 1106.610107,1521.558716 1103.137695,1514.028931 C1099.729736,1506.639038 1102.450195,1500.422485 1107.871826,1495.071777 C1114.512451,1488.518188 1120.884644,1481.654053 1127.898193,1475.525269 C1142.689331,1462.599854 1158.071045,1450.344849 1172.732056,1437.278198 C1183.416138,1427.756104 1193.023193,1417.026123 1203.700195,1407.495361 C1211.337158,1400.678467 1219.951416,1394.956299 1228.848877,1388.446777 z"/>
  </g>

  <!-- Middle Gear -->
  <g id="gear2" fill="none" stroke="black" stroke-width="2">
    <path fill="#FABE44" opacity="1.000000" stroke="none" d=" M462.625916,1545.570557 C466.132812,1531.479492 476.131287,1525.812622 488.306122,1524.231812 C498.802307,1522.869019 509.548401,1523.161987 520.181885,1523.208374 C529.167542,1523.247437 538.146606,1524.216431 547.134949,1524.350098 C558.189880,1524.514526 564.441467,1519.455444 566.805908,1508.603638 C567.793579,1504.070557 567.407227,1499.161377 568.836670,1494.814941 C574.300964,1478.200439 582.188171,1462.822144 594.727661,1450.332520 C610.458313,1434.664429 631.864136,1433.529053 648.691101,1448.061523 C655.928101,1454.311768 661.835693,1462.117554 668.217651,1469.331421 C670.193481,1471.564819 671.640442,1474.256958 673.503052,1476.601074 C681.930237,1487.207275 688.609497,1487.728638 698.238403,1477.986450 C702.665222,1473.507446 706.464661,1468.371460 710.265137,1463.320190 C714.674194,1457.459961 720.130859,1453.444580 727.468933,1452.316650 C735.661621,1451.057373 742.462585,1447.030273 748.720642,1441.862305 C750.517700,1440.378052 752.289001,1438.850708 754.181824,1437.496582 C765.541321,1429.370728 775.973022,1427.423218 787.048035,1441.428467 C790.949524,1446.362183 795.757446,1450.586426 799.579773,1455.572754 C802.146301,1458.920898 804.149536,1462.875000 805.628662,1466.846924 C808.879456,1475.576050 811.190918,1484.670776 814.704102,1493.282471 C819.736816,1505.618774 824.403748,1507.608398 837.329712,1505.321167 C844.503784,1504.051636 851.863098,1503.834351 859.042297,1502.586548 C868.848938,1500.882446 878.616943,1498.874023 888.302612,1496.579102 C898.357117,1494.197144 908.148865,1493.830200 917.451599,1498.975952 C926.400085,1503.926147 932.796082,1510.612305 932.313904,1521.867676 C932.173279,1525.149780 932.072449,1528.864990 933.403503,1531.700928 C938.037659,1541.574341 938.088684,1552.312866 940.400208,1562.601562 C945.482544,1585.222534 956.033386,1604.208740 979.497192,1613.274048 C991.965637,1618.091064 1003.520996,1624.697632 1012.422729,1635.237061 C1019.587036,1643.719360 1024.437988,1652.821655 1022.747681,1664.326538 C1022.411987,1666.611450 1022.308899,1669.142090 1021.227661,1671.071411 C1014.567993,1682.955078 1008.781250,1695.532593 997.526794,1704.095703 C993.571838,1707.104614 991.929443,1711.030273 990.621216,1715.748291 C986.634399,1730.125977 985.901428,1744.131592 994.412842,1757.092041 C997.223083,1761.371094 1001.085022,1765.453491 1005.385986,1768.168823 C1019.391968,1777.011719 1027.907593,1789.573730 1032.441040,1805.150391 C1034.642700,1812.715576 1032.816772,1819.892944 1028.651367,1826.155640 C1014.299255,1847.733765 994.591248,1861.904785 968.632019,1865.062256 C961.216370,1865.964355 952.817322,1863.067871 945.568970,1860.165527 C930.607605,1854.175049 919.767212,1842.556763 910.119080,1830.145264 C902.576599,1820.442749 896.087219,1809.916382 889.217712,1799.697021 C881.163879,1787.715698 877.680054,1774.387817 877.663025,1760.029297 C877.650391,1749.367432 877.680481,1738.697510 877.288879,1728.046143 C876.855957,1716.272095 873.932007,1705.197388 868.414551,1694.579224 C861.210632,1680.715576 855.680969,1665.997192 845.914490,1653.502197 C820.778992,1621.344727 791.798462,1593.780151 754.088196,1576.775879 C749.399414,1574.661499 743.885437,1573.889526 738.679565,1573.507080 C726.412598,1572.606445 714.105591,1572.114380 701.806091,1571.828247 C684.405640,1571.423096 667.212402,1572.209595 651.281677,1580.743042 C646.035645,1583.553223 640.286377,1585.569702 634.580017,1587.348877 C612.251343,1594.310791 594.367371,1608.083252 578.578613,1624.593628 C556.921204,1647.240356 540.991821,1673.818115 528.801880,1702.538208 C522.481140,1717.430420 519.480103,1733.067993 523.082703,1749.417969 C523.928589,1753.256592 523.835266,1757.362793 523.748657,1761.336548 C523.220581,1785.567871 527.428528,1808.345337 542.725952,1828.151367 C546.345276,1832.837280 549.585388,1838.177612 551.525146,1843.732056 C557.576965,1861.061157 569.201416,1874.094482 582.446167,1886.018188 C590.642700,1893.397339 599.235352,1900.152100 609.850037,1903.959473 C614.208923,1905.523071 618.301514,1907.888062 622.405090,1910.093628 C635.691895,1917.235474 649.568420,1922.603271 664.487427,1925.316040 C674.301758,1927.100586 684.071960,1929.241455 693.733398,1931.723145 C704.757324,1934.554565 715.416382,1933.624390 726.222412,1930.558228 C741.361633,1926.262573 756.811646,1922.881714 772.567444,1926.030884 C814.140442,1934.339844 851.610535,1967.593384 841.593384,2023.637329 C838.402100,2041.491699 818.388184,2061.319336 800.587830,2064.822998 C797.403748,2065.449707 793.892151,2065.550049 790.723083,2064.924561 C774.588806,2061.739502 760.601440,2054.614258 749.700073,2041.922485 C745.152588,2036.628052 740.567688,2031.262695 735.342102,2026.679443 C728.628540,2020.791016 723.777588,2020.517822 716.266663,2025.441162 C710.733337,2029.067871 705.934937,2033.795532 700.631165,2037.796875 C690.559387,2045.395264 680.708923,2053.375977 670.074219,2060.103516 C664.316956,2063.745605 657.301453,2065.904541 650.557678,2067.382324 C633.439697,2071.133545 620.546936,2065.034424 612.205261,2049.508301 C607.167969,2040.132446 602.594788,2030.479858 598.303833,2020.735474 C587.446045,1996.078125 578.354370,1991.550659 552.062561,1997.976196 C540.463623,2000.810913 529.177551,2005.975952 516.907288,2004.481567 C510.747345,2003.731201 504.316193,2002.374390 498.815765,1999.656494 C488.638641,1994.627563 482.461334,1986.805298 483.395111,1974.186401 C484.580139,1958.172119 483.015808,1942.288574 478.544891,1926.698608 C477.198242,1922.003052 477.655853,1916.796387 477.228149,1911.828857 C476.915070,1908.192749 476.930908,1904.458740 476.056824,1900.953735 C473.784790,1891.843262 468.164825,1887.759399 458.763916,1887.687744 C454.108643,1887.652222 449.420776,1887.799316 444.805695,1887.312988 C427.864899,1885.527954 415.845062,1876.441650 404.950134,1863.463745 C394.035126,1850.461670 395.218811,1836.109863 397.023895,1821.980591 C398.170837,1813.002930 404.954163,1805.328613 413.033447,1799.863525 C417.991791,1796.509521 423.095673,1793.249878 427.540771,1789.282837 C437.141083,1780.715088 439.201752,1771.883057 432.743927,1760.753784 C426.770142,1750.458740 420.208374,1740.070190 411.949188,1731.639282 C399.963379,1719.404663 393.229828,1706.263550 396.279907,1688.985107 C396.394043,1688.338745 396.268555,1687.653442 396.298462,1686.988281 C396.604248,1680.186646 395.076080,1673.339722 400.896332,1667.375488 C408.490906,1659.593262 416.022461,1652.317505 427.408173,1650.874634 C430.052002,1650.539551 432.696228,1649.685425 435.316864,1649.772705 C455.748932,1650.452393 470.895355,1629.946533 467.522278,1606.935791 C466.122040,1597.383545 464.168701,1587.879517 463.382935,1578.278564 C462.516907,1567.696655 462.702881,1557.028687 462.625916,1545.570557 z"/>
  </g>

  <!-- Right Gear -->
  <g id="gear3" fill="none" stroke="black" stroke-width="2">
    <path fill="#FABF44" opacity="1.000000" stroke="none" d=" M1451.325073,1965.426514 C1455.857178,1963.877319 1459.661377,1962.644165 1463.409302,1961.258179 C1485.358765,1953.141235 1504.400513,1957.608643 1521.201416,1973.824219 C1540.416870,1992.370117 1545.308838,2021.344482 1532.772705,2045.332886 C1528.910645,2052.723145 1525.882324,2060.132324 1525.087280,2068.800049 C1523.485596,2086.264404 1532.585449,2097.140625 1545.690674,2105.894775 C1552.129395,2110.195801 1559.360840,2112.715088 1567.384399,2112.260498 C1585.398193,2111.239258 1601.882324,2117.276855 1616.658569,2126.251709 C1632.945801,2136.144531 1644.048096,2150.580322 1642.806885,2171.399658 C1642.628784,2174.389893 1642.655029,2177.398438 1642.718994,2180.395752 C1642.944580,2190.974121 1639.312012,2200.012939 1631.754517,2207.363525 C1622.681396,2216.187988 1613.277832,2224.678955 1604.366211,2233.660645 C1598.057129,2240.019043 1591.627197,2246.461182 1586.510742,2253.750000 C1579.692749,2263.462402 1580.606079,2268.169678 1589.085449,2276.485596 C1605.499634,2292.583740 1621.601929,2309.041260 1638.677979,2324.411377 C1656.577148,2340.522217 1657.098389,2360.824707 1650.591675,2380.457031 C1645.310181,2396.392334 1632.126343,2408.108398 1614.665161,2412.340576 C1602.720581,2415.235596 1590.466553,2416.841553 1578.491699,2419.628662 C1568.149658,2422.035889 1559.676392,2427.907471 1552.706543,2435.927734 C1549.317627,2439.827393 1547.455444,2444.181641 1547.123413,2449.467285 C1546.223145,2463.795898 1548.969849,2477.222900 1555.424683,2490.068604 C1559.153931,2497.490479 1562.633179,2505.117188 1565.346924,2512.955566 C1573.380493,2536.159424 1566.496216,2554.849121 1546.042725,2568.128418 C1527.920288,2579.894287 1508.714478,2583.298340 1487.812256,2577.372070 C1478.206177,2574.648926 1468.429565,2572.529297 1458.738770,2570.102295 C1437.026245,2564.665039 1414.959351,2582.740723 1412.086548,2602.043945 C1410.028442,2615.873779 1406.868896,2629.536377 1404.412354,2643.311523 C1402.770386,2652.518311 1398.750488,2660.293457 1391.773804,2666.540039 C1390.534302,2667.649902 1389.262207,2668.774658 1388.254395,2670.083984 C1374.711182,2687.679443 1355.872925,2688.140625 1336.597046,2685.200684 C1323.463501,2683.197754 1314.315308,2673.909180 1305.560181,2664.575195 C1298.970459,2657.549805 1292.483765,2650.382324 1285.398315,2643.880615 C1278.489258,2637.540771 1270.193115,2636.288330 1261.147217,2639.339844 C1257.406128,2640.602051 1253.327881,2641.653076 1249.441895,2641.533203 C1241.265381,2641.281006 1235.584961,2645.218994 1230.401001,2650.803711 C1222.700928,2659.099609 1215.007446,2667.413818 1206.994141,2675.402100 C1202.774536,2679.608398 1197.859497,2683.113281 1193.303223,2686.987305 C1191.025513,2688.924072 1187.891357,2690.561523 1186.802246,2693.057617 C1183.320557,2701.038574 1177.139526,2701.799316 1169.633179,2701.440674 C1160.025024,2700.981689 1150.378418,2701.329102 1140.278687,2701.329102 C1138.062866,2693.054443 1132.222656,2688.475098 1125.876465,2684.003662 C1119.777710,2679.707031 1115.909912,2673.611328 1114.038940,2666.057617 C1112.207886,2658.665283 1109.061157,2651.609375 1106.929810,2644.278320 C1104.985962,2637.591553 1103.238159,2630.799561 1102.089355,2623.939209 C1099.138794,2606.318115 1084.437134,2593.497559 1066.565552,2594.134277 C1060.667969,2594.344238 1054.754150,2595.917725 1048.979248,2597.384766 C1034.137939,2601.155273 1019.491394,2605.769531 1004.546509,2609.038574 C977.335388,2614.990723 951.208313,2598.434326 943.733826,2571.530762 C940.550171,2560.071289 940.170410,2548.728027 941.899597,2536.957764 C944.025391,2522.488281 945.213440,2507.873291 946.557800,2493.298340 C948.029236,2477.344238 939.367432,2466.695068 926.932800,2458.807373 C923.304565,2456.505859 918.151550,2456.146240 913.627747,2455.794922 C889.504578,2453.920166 868.243408,2445.939697 851.388489,2427.888916 C843.791016,2419.752441 839.618225,2410.285400 839.127747,2399.143555 C838.326965,2380.949463 842.861633,2364.922852 857.014038,2352.368896 C863.236450,2346.849609 868.945496,2340.746826 874.825317,2334.846924 C888.782898,2320.841553 891.837219,2303.620361 881.741760,2286.566162 C876.215210,2277.230469 868.536926,2269.114746 861.448669,2260.771973 C853.477844,2251.390625 845.036072,2242.410889 836.882263,2233.182617 C832.030518,2227.691895 829.995239,2221.123291 829.978821,2213.854736 C829.965210,2207.857666 829.819702,2201.860596 829.850586,2195.863770 C829.904907,2185.330566 834.476074,2177.648193 843.592041,2172.020264 C856.683533,2163.937744 869.987366,2156.527100 884.814941,2152.057861 C890.543640,2150.331299 896.144897,2148.106934 901.666504,2145.782471 C915.313110,2140.037598 924.433472,2129.706299 929.884827,2116.234131 C931.297729,2112.742432 931.607300,2108.358154 931.036438,2104.594482 C929.432129,2094.016846 925.806946,2084.135498 920.796265,2074.513428 C916.876221,2066.985840 915.097717,2058.335449 912.439880,2050.160645 C910.801025,2045.119751 910.075867,2039.606323 907.571289,2035.059204 C902.407837,2025.684570 903.268616,2016.717041 909.067200,2008.666748 C922.188599,1990.450684 938.773560,1977.245605 962.381409,1975.780151 C977.744629,1974.826538 992.225708,1977.490967 1005.269043,1986.224487 C1018.491089,1995.077759 1037.062378,1993.782959 1049.679199,1982.128418 C1054.843750,1977.357666 1059.087524,1970.675903 1061.498291,1964.044922 C1065.457642,1953.155029 1068.232422,1941.714355 1070.280396,1930.286255 C1072.041016,1920.461914 1076.347290,1913.039062 1084.228394,1907.040894 C1090.552612,1902.227295 1096.026978,1896.312256 1102.212402,1891.297852 C1116.303711,1879.874512 1132.160889,1879.744385 1148.522339,1885.030396 C1160.056519,1888.756958 1168.169067,1897.331299 1176.162476,1905.854858 C1180.487671,1910.466919 1184.352661,1915.507202 1188.560181,1920.234375 C1190.991333,1922.965820 1193.560303,1925.605469 1196.291016,1928.034790 C1210.303955,1940.502075 1225.128540,1940.898804 1239.457520,1928.676636 C1244.997070,1923.951660 1250.154419,1918.572876 1254.599976,1912.808716 C1269.204590,1893.872314 1289.109985,1886.471436 1312.084473,1885.409424 C1314.685669,1885.289307 1317.664062,1885.432617 1319.899170,1886.570435 C1334.186035,1893.842041 1348.559692,1901.215942 1356.810425,1915.986206 C1362.815186,1926.735596 1368.411499,1937.713867 1374.138916,1948.616821 C1376.152100,1952.448975 1377.820190,1956.472412 1379.979980,1960.215820 C1387.976196,1974.075928 1400.708008,1980.150635 1416.268677,1976.368774 C1427.883423,1973.546143 1439.149780,1969.289917 1451.325073,1965.426514 M1122.363159,2075.275146 C1085.353394,2101.535400 1053.408081,2132.900879 1027.102905,2169.926514 C1006.164124,2199.399170 993.486572,2232.021729 991.722961,2268.248779 C989.751282,2308.750000 1000.374390,2346.840332 1016.626648,2383.454834 C1030.881104,2415.568359 1051.713013,2443.130371 1077.676147,2466.692383 C1102.787476,2489.481689 1130.205688,2509.000244 1162.889160,2519.326172 C1177.404541,2523.912354 1192.607788,2526.659180 1207.687500,2529.051758 C1238.286621,2533.906250 1268.754028,2533.641357 1298.540527,2523.618408 C1306.741455,2520.858398 1315.119019,2518.483643 1323.037354,2515.057861 C1333.386353,2510.580566 1344.016724,2506.217285 1353.319824,2500.000000 C1363.779663,2493.009277 1372.820801,2483.916260 1382.620361,2475.910889 C1389.831299,2470.020020 1396.648193,2463.235840 1404.748901,2458.939453 C1417.628052,2452.108887 1427.258057,2442.459229 1434.761230,2430.423828 C1442.507446,2417.998535 1450.572754,2405.673096 1457.062012,2392.591553 C1463.246094,2380.124756 1467.997437,2366.886719 1472.625488,2353.722900 C1479.546631,2334.036865 1481.026123,2313.260742 1482.301514,2292.704346 C1483.244263,2277.509766 1482.598755,2262.032715 1480.819580,2246.897949 C1478.396851,2226.289551 1471.125610,2206.790527 1463.039917,2187.760498 C1451.596191,2160.826904 1437.044678,2135.956055 1413.626831,2117.338379 C1411.310669,2115.497070 1409.396362,2113.091064 1407.519165,2110.766602 C1385.732666,2083.789307 1357.476929,2066.101318 1325.319580,2054.434570 C1301.743652,2045.881226 1277.059204,2041.617310 1252.277832,2038.331055 C1244.788330,2037.337891 1236.968262,2037.393311 1229.463257,2038.309448 C1218.907104,2039.598145 1208.438354,2041.848389 1198.047852,2044.198486 C1171.575195,2050.186523 1145.998535,2058.504883 1122.363159,2075.275146 z"/>
  </g>
</svg>
