<?xml version="1.0" encoding="utf-8"?>
<svg xmlns="http://www.w3.org/2000/svg" viewBox="1652.4065 1626.974 1332.6196 803.4393" width="1332.62px" height="803.439px" preserveAspectRatio="none"><g id="object-1" transform="matrix(1, 0, 0, 1, -1.1368683772161603e-13, 0)"><g id="object-0"><path fill="#F9BE44" opacity="1.000000" stroke="none" d=" M1825.843994,1766.381104 C1828.141846,1784.877686 1836.205322,1800.653320 1841.967407,1817.189819 C1844.780518,1825.263306 1845.844849,1833.929932 1848.167969,1842.196777 C1849.407959,1846.609009 1851.923706,1850.647949 1853.379517,1855.016602 C1860.938477,1877.700439 1868.348145,1900.433960 1875.784180,1923.158691 C1876.296387,1924.723633 1876.324707,1926.495605 1877.050415,1927.932739 C1879.445801,1932.675415 1883.243530,1933.083252 1886.278809,1928.798096 C1887.787964,1926.667358 1888.777222,1924.105225 1889.687744,1921.623169 C1901.239258,1890.135376 1913.104248,1858.755737 1924.123657,1827.081909 C1932.734253,1802.331909 1940.066284,1777.140015 1948.368286,1752.278564 C1953.951660,1735.558105 1960.899048,1719.271118 1965.973511,1702.410278 C1969.361084,1691.154175 1973.630127,1680.471924 1979.358154,1670.327026 C1982.132568,1665.413330 1985.195801,1660.601562 1988.639160,1656.137939 C1998.951294,1642.770264 2012.922974,1636.999756 2029.589233,1637.209961 C2045.197388,1637.406982 2060.805664,1636.384277 2076.215820,1640.775879 C2083.096436,1642.736816 2090.812012,1641.598511 2097.872314,1643.135742 C2109.162598,1645.593872 2115.118164,1653.796631 2115.118652,1665.310425 C2115.124023,1785.624023 2115.114502,1905.937500 2115.077881,2026.251099 C2115.073242,2040.715698 2107.478516,2049.594727 2093.362061,2052.727051 C2077.981689,2056.139648 2062.781494,2053.782959 2047.827637,2050.908691 C2034.749756,2048.395264 2030.409790,2041.637329 2030.408325,2028.263062 C2030.399902,1949.942505 2030.403809,1871.621948 2030.403442,1793.301392 C2030.403320,1789.058716 2030.403442,1784.816040 2030.403442,1780.646729 C2023.520386,1779.196167 2021.931030,1782.993896 2021.284180,1787.010986 C2018.672607,1803.230347 2011.815796,1818.090210 2006.632812,1833.475098 C2003.982788,1841.341431 2000.491699,1848.924805 1997.365967,1856.630127 C1995.991455,1860.018188 1994.389648,1863.326538 1993.215942,1866.781494 C1983.602417,1895.079102 1973.591431,1923.254639 1964.670166,1951.770264 C1958.619263,1971.111084 1949.672119,1989.472534 1946.097778,2009.704956 C1944.816162,2016.958984 1940.850952,2024.129395 1936.701050,2030.406250 C1927.640381,2044.110840 1914.810059,2051.137939 1897.808472,2050.290039 C1884.840210,2049.643311 1871.814209,2049.760254 1858.824829,2050.041260 C1845.851318,2050.322021 1836.221069,2044.972534 1830.230347,2033.721680 C1825.715820,2025.243530 1821.137695,2016.606445 1818.197266,2007.519409 C1809.497803,1980.634155 1801.817261,1953.421143 1793.315186,1926.469849 C1786.006958,1903.302368 1778.218262,1880.284058 1770.441895,1857.267578 C1766.508423,1845.625488 1762.082520,1834.150635 1757.991577,1822.560547 C1757.001465,1819.755005 1756.387207,1816.808228 1755.728516,1813.897339 C1755.289795,1811.958618 1755.381836,1809.856079 1754.703247,1808.024536 C1753.326660,1804.309814 1751.806519,1799.556396 1747.016357,1800.285889 C1742.304932,1801.003296 1743.248169,1805.953247 1743.243896,1809.433472 C1743.202759,1843.093628 1743.342163,1876.754028 1743.313354,1910.414307 C1743.279663,1949.739380 1743.147217,1989.064575 1742.994995,2028.389404 C1742.983521,2031.366943 1742.932495,2034.477783 1742.102295,2037.291260 C1740.292358,2043.424438 1736.692627,2048.348389 1729.652466,2048.411133 C1707.709961,2048.606689 1685.762573,2048.650635 1663.821655,2048.381592 C1658.100464,2048.311279 1654.173462,2043.853882 1652.933716,2037.153687 C1652.334473,2033.914673 1652.474243,2030.517578 1652.473145,2027.192139 C1652.434570,1905.545532 1652.414185,1783.898804 1652.406494,1662.252197 C1652.405762,1650.094604 1657.150146,1645.229370 1669.116821,1645.142212 C1679.781250,1645.064575 1690.451660,1645.325195 1701.110229,1645.061768 C1721.059937,1644.568481 1741.048340,1644.413452 1760.932373,1642.932129 C1773.622070,1641.986572 1781.284668,1647.821777 1786.517090,1657.959473 C1790.933838,1666.516602 1794.916870,1675.380737 1798.145996,1684.445923 C1801.924561,1695.054077 1804.374634,1706.128784 1807.952637,1716.816406 C1812.490601,1730.372559 1817.576538,1743.745605 1822.443481,1757.191284 C1823.462280,1760.005859 1824.556396,1762.793091 1825.843994,1766.381104 z"/><path fill="#FABE44" opacity="1.000000" stroke="none" d=" M2931.923340,1892.154785 C2938.427734,1907.834351 2944.642822,1922.820801 2951.056152,1937.721802 C2959.714600,1957.839600 2968.723389,1977.809082 2977.167480,1998.015381 C2980.225098,2005.331909 2982.590332,2013.031616 2984.375000,2020.763428 C2986.813232,2031.329468 2982.371338,2036.601807 2971.579346,2036.651245 C2948.918945,2036.755371 2926.257080,2036.591797 2903.597168,2036.743408 C2898.641846,2036.776611 2894.980469,2034.914795 2890.907471,2032.178467 C2874.980225,2021.478271 2870.031738,2004.495361 2864.151611,1987.887329 C2862.051270,1981.955566 2859.418213,1976.212646 2857.028809,1970.383301 C2852.607666,1959.596558 2843.744385,1953.132324 2834.218262,1947.518066 C2831.810791,1946.099121 2828.529785,1945.635986 2825.647949,1945.629639 C2792.659180,1945.555786 2759.669434,1945.569214 2726.681152,1945.755249 C2715.236084,1945.819702 2705.531006,1950.087158 2697.123047,1958.134644 C2687.265381,1967.569702 2680.255615,1978.654175 2675.257324,1991.189087 C2673.159668,1996.449829 2671.018555,2001.693115 2668.897705,2006.944580 C2664.336670,2018.236450 2656.346680,2025.901001 2645.529297,2031.636353 C2633.925293,2037.788574 2621.788574,2040.199463 2609.023193,2040.026367 C2594.745850,2039.832886 2580.454590,2039.327148 2566.211670,2038.347046 C2555.854492,2037.634277 2551.714600,2028.932495 2556.260254,2019.501709 C2560.138916,2011.454712 2563.605713,2003.203247 2567.083008,1994.969727 C2578.081787,1968.925537 2589.141846,1942.905518 2599.906738,1916.764526 C2609.268066,1894.031982 2618.106689,1871.084351 2627.457275,1848.347290 C2638.338379,1821.888184 2649.442871,1795.520020 2660.601074,1769.176270 C2673.304199,1739.185791 2686.179688,1709.268555 2698.955566,1679.308960 C2699.738037,1677.473389 2700.701904,1675.589355 2700.911621,1673.655273 C2702.578613,1658.280518 2712.423096,1648.209717 2722.500000,1637.678345 C2730.242676,1629.586670 2738.209229,1626.398682 2749.288574,1627.058105 C2764.896240,1627.986938 2780.601074,1627.376709 2796.262695,1627.252319 C2801.071533,1627.214111 2804.623779,1628.797485 2808.812744,1631.574341 C2824.670410,1642.086182 2833.273682,1657.387085 2840.271484,1674.242065 C2850.083008,1697.874023 2860.639160,1721.203003 2870.132568,1744.958984 C2877.513184,1763.427490 2883.261230,1782.549683 2890.676758,1801.002686 C2895.745361,1813.615356 2902.426514,1825.580811 2908.407471,1837.825562 C2909.572998,1840.212036 2911.505127,1842.435059 2911.941406,1844.933105 C2914.924072,1861.999756 2924.484131,1876.208496 2931.923340,1892.154785 M2745.375732,1864.701660 C2754.971191,1864.026489 2764.562012,1863.273438 2774.163330,1862.697144 C2784.777100,1862.059814 2795.411865,1861.744629 2806.016602,1860.993774 C2816.756104,1860.233398 2818.386963,1857.521240 2815.031738,1846.991211 C2814.627930,1845.723511 2814.205811,1844.457764 2813.712158,1843.222900 C2805.445068,1822.533325 2797.270508,1801.805542 2788.820557,1781.190918 C2786.431152,1775.361816 2783.557861,1769.664795 2780.278564,1764.290405 C2778.135254,1760.777588 2774.861328,1757.954834 2771.188721,1753.798706 C2768.402344,1757.499268 2766.397949,1759.983276 2764.584473,1762.599609 C2755.596436,1775.567139 2750.895264,1790.635254 2743.921631,1804.561279 C2737.002930,1818.378174 2732.098145,1832.692871 2727.826172,1847.375122 C2724.594482,1858.482056 2726.280029,1861.505859 2737.567383,1864.180908 C2739.482910,1864.634766 2741.528809,1864.537354 2745.375732,1864.701660 z"/><path fill="#EBB443" opacity="1.000000" stroke="none" d=" M2263.829102,2419.665527 C2259.711914,2425.300293 2254.751709,2428.373291 2248.677979,2429.715576 C2235.276855,2432.677734 2222.567627,2425.727539 2219.407471,2412.380371 C2217.854248,2405.820312 2217.876221,2398.443359 2219.077393,2391.776855 C2220.983398,2381.198730 2230.470459,2373.982178 2241.044922,2373.245605 C2253.004639,2372.413086 2262.827881,2378.338379 2266.906982,2389.425049 C2270.653320,2399.608887 2270.104492,2409.621826 2263.829102,2419.665527 M2244.575439,2382.951660 C2238.807373,2382.609619 2235.597412,2385.954346 2235.175049,2391.071777 C2234.608154,2397.942627 2234.758545,2404.927490 2235.272461,2411.813232 C2235.613037,2416.372559 2238.042480,2420.112549 2243.304443,2420.433838 C2247.443115,2420.686523 2251.249756,2416.853516 2251.752441,2410.997314 C2252.289062,2404.749756 2252.494629,2398.329102 2251.603027,2392.163818 C2251.152100,2389.048340 2247.959717,2386.329346 2244.575439,2382.951660 z"/></g><path fill="#FABE44" opacity="1.000000" stroke="none" d=" M2248.249023,2025.898193 C2234.168457,2016.702026 2222.258057,2006.301270 2211.961670,1993.803955 C2203.967773,1984.101196 2198.700439,1973.106079 2193.756104,1961.837402 C2190.960449,1955.465820 2188.304932,1948.968994 2186.372559,1942.300903 C2184.541992,1935.983276 2182.840088,1929.390625 2182.678223,1922.879150 C2182.384766,1911.087036 2180.583496,1899.741821 2176.861572,1888.576660 C2175.629883,1884.880981 2174.986328,1880.835815 2174.912842,1876.934814 C2174.649414,1862.945190 2174.393311,1848.937500 2174.846924,1834.959839 C2175.092041,1827.405640 2175.636719,1819.501221 2178.078857,1812.459839 C2182.082764,1800.913696 2183.985596,1789.052612 2183.889160,1777.191040 C2183.730713,1757.659424 2192.146729,1741.095337 2199.966553,1724.302979 C2203.864502,1715.932739 2209.028320,1708.048706 2214.372559,1700.476074 C2227.643555,1681.671631 2244.166504,1666.591797 2265.906250,1657.961792 C2274.265137,1654.643555 2282.418945,1650.340942 2291.093994,1648.400513 C2303.018799,1645.733398 2315.336426,1643.608521 2327.509766,1643.478638 C2378.150391,1642.938477 2428.799561,1643.195312 2479.445801,1643.250732 C2492.305420,1643.264771 2500.686768,1651.599976 2500.794189,1664.278687 C2500.890381,1675.606445 2500.932129,1686.938965 2500.696777,1698.263062 C2500.622559,1701.849731 2499.978271,1705.541870 2498.899658,1708.967041 C2496.318848,1717.165161 2490.754883,1721.583374 2481.843994,1721.521240 C2470.517822,1721.442261 2459.190186,1721.637451 2447.863037,1721.633789 C2413.883545,1721.622803 2379.900879,1721.831665 2345.926514,1721.399170 C2333.797607,1721.244995 2322.722656,1723.937378 2312.929199,1730.650146 C2301.317871,1738.609131 2291.216797,1747.915527 2286.584961,1762.165771 C2283.199219,1772.582031 2278.356445,1782.403442 2279.426758,1793.898438 C2280.205811,1802.264526 2285.001465,1808.409058 2293.237061,1809.406006 C2296.197510,1809.764526 2299.226562,1809.604858 2302.224121,1809.604980 C2361.533447,1809.607544 2420.842773,1809.601074 2480.152100,1809.590454 C2496.971191,1809.587402 2502.745605,1815.332275 2502.802734,1832.258301 C2502.842285,1843.920166 2502.917480,1855.583496 2502.775391,1867.243774 C2502.652100,1877.392090 2498.579346,1882.416870 2488.648926,1884.510864 C2484.465820,1885.392944 2480.119629,1885.894165 2475.846924,1885.899780 C2415.871338,1885.978149 2355.895996,1885.939697 2295.920410,1885.935669 C2293.255127,1885.935425 2290.572998,1885.811523 2287.928467,1886.061890 C2282.919922,1886.536133 2279.518066,1889.541992 2279.753418,1894.435547 C2280.551025,1911.017456 2281.397217,1927.718994 2294.637207,1940.355225 C2297.038574,1942.647217 2299.504395,1945.023682 2301.291992,1947.781494 C2309.571289,1960.553711 2322.468506,1963.802246 2336.330811,1965.713867 C2344.443604,1966.832764 2352.418701,1968.942749 2360.463867,1970.567261 C2362.719727,1971.022705 2364.998291,1971.628174 2367.276367,1971.673584 C2403.198242,1972.390991 2439.122314,1973.033325 2475.045898,1973.675659 C2478.376709,1973.735107 2481.711670,1973.599609 2485.041016,1973.688843 C2494.814209,1973.950928 2502.316895,1980.524902 2502.630859,1990.319336 C2503.068359,2003.964111 2502.922852,2017.645752 2502.474854,2031.293579 C2502.213379,2039.253662 2492.259033,2049.460693 2483.149170,2050.289307 C2466.290527,2051.822510 2449.202637,2054.102539 2432.451904,2052.846924 C2402.194824,2050.578857 2371.969238,2050.353027 2341.702881,2050.363037 C2326.621094,2050.367920 2311.947266,2048.855957 2297.663330,2043.436035 C2281.548828,2037.321289 2265.136475,2031.990723 2248.249023,2025.898193 z"/><path fill="#E9B242" opacity="1.000000" stroke="none" d=" M1794.534058,2285.468018 C1794.534058,2289.961426 1794.534058,2293.527832 1794.534058,2297.474609 C1789.372681,2297.474609 1785.488770,2297.474609 1780.874878,2297.474609 C1780.874878,2273.294189 1780.874878,2249.561035 1780.874878,2224.596680 C1788.369385,2224.596680 1795.269775,2224.622070 1802.169922,2224.586670 C1805.947510,2224.567383 1807.261108,2227.055176 1808.156738,2230.138428 C1810.292725,2237.491943 1812.460571,2244.836670 1814.670532,2252.168213 C1815.715454,2255.634766 1816.886841,2259.062988 1818.296875,2263.424072 C1824.593018,2257.750000 1824.250732,2250.331299 1826.673462,2244.195312 C1829.097290,2238.055908 1830.847046,2231.650391 1832.958740,2225.157227 C1841.732422,2225.157227 1849.884033,2225.157227 1858.685547,2225.157227 C1858.685547,2249.536865 1858.685547,2273.282471 1858.685547,2297.332275 C1853.114624,2297.332275 1848.281982,2297.332275 1842.383057,2297.332275 C1842.383057,2280.336670 1842.383057,2263.895020 1842.383057,2247.453369 C1841.634277,2247.320557 1840.885620,2247.187988 1840.136841,2247.055420 C1833.522095,2263.426270 1830.069092,2280.956299 1823.643311,2297.501953 C1819.840820,2297.501953 1816.598022,2297.501953 1812.724976,2297.501953 C1806.887207,2281.734863 1803.820190,2265.125732 1796.178589,2249.973633 C1794.013794,2261.593750 1794.770752,2273.090088 1794.534058,2285.468018 z"/><path fill="#E8B142" opacity="1.000000" stroke="none" d=" M2493.863037,2314.477051 C2484.300049,2306.527344 2484.262207,2302.683838 2492.977295,2292.927246 C2487.002930,2282.910889 2487.055908,2282.632080 2496.933350,2272.890869 C2495.856934,2271.669678 2494.683838,2270.503906 2493.699951,2269.195312 C2487.638184,2261.131592 2489.086670,2252.369629 2497.589600,2247.004639 C2504.647705,2242.551025 2512.484619,2241.620361 2520.630859,2242.846924 C2522.891357,2243.187256 2525.132568,2243.654785 2527.804688,2244.140869 C2530.880615,2237.969971 2535.018555,2233.013428 2542.381836,2234.957031 C2544.097412,2235.409668 2544.893555,2239.346436 2546.361572,2242.156738 C2542.334961,2243.942627 2539.447021,2245.223145 2535.955811,2246.771484 C2536.715332,2249.186523 2537.337891,2251.303467 2538.045410,2253.391602 C2541.124023,2262.475342 2537.895508,2270.306885 2528.930908,2273.457764 C2524.330811,2275.074951 2519.222900,2275.306641 2514.318604,2275.973389 C2512.362305,2276.239258 2510.271484,2275.681885 2508.362305,2276.078613 C2506.987061,2276.364258 2505.811035,2277.608643 2504.546143,2278.425293 C2505.559570,2279.895996 2506.284180,2282.181885 2507.647217,2282.664551 C2510.386963,2283.635254 2513.468750,2283.680908 2516.420654,2284.003418 C2522.019287,2284.615234 2527.684082,2284.821045 2533.216553,2285.792725 C2544.077148,2287.699951 2548.406250,2298.758301 2542.147461,2307.934326 C2538.946289,2312.627686 2534.303223,2315.036865 2528.942383,2316.121338 C2517.389648,2318.458496 2505.876953,2318.779541 2493.863037,2314.477051 M2502.733398,2296.505371 C2499.619629,2303.029541 2500.034180,2305.693359 2505.643799,2306.739258 C2511.394287,2307.811035 2517.448975,2307.689453 2523.338379,2307.410645 C2526.729248,2307.249756 2530.403809,2305.146973 2529.522217,2301.255859 C2529.052979,2299.183594 2525.553223,2296.653564 2523.183350,2296.378662 C2516.985840,2295.659180 2510.657227,2296.066650 2502.733398,2296.505371 M2506.306641,2255.977539 C2506.148682,2257.276123 2505.788330,2258.587891 2505.869629,2259.871094 C2506.151367,2264.306152 2508.287842,2267.408447 2512.873535,2268.090332 C2517.156738,2268.726807 2520.696533,2267.392578 2522.671387,2263.212891 C2524.399902,2259.554199 2523.966553,2256.041016 2521.200928,2253.162109 C2517.855225,2249.679688 2513.864990,2248.903320 2509.650879,2251.694580 C2508.591309,2252.396240 2507.837891,2253.560059 2506.306641,2255.977539 z"/><path fill="#E8B142" opacity="1.000000" stroke="none" d=" M2906.722656,2242.438477 C2912.209229,2242.862061 2916.804688,2243.296631 2921.258057,2243.717773 C2928.050537,2234.750732 2928.050537,2234.750732 2938.045166,2235.173584 C2938.340576,2237.577881 2938.648926,2240.087646 2938.971680,2242.716309 C2935.626709,2244.127197 2932.730957,2245.348633 2929.311523,2246.791016 C2930.248779,2249.419434 2931.044434,2251.510010 2931.742676,2253.632324 C2934.702881,2262.629395 2931.189453,2270.593994 2922.225586,2273.667969 C2917.903320,2275.150391 2913.136963,2275.467285 2908.533936,2275.956787 C2905.364502,2276.293945 2902.130371,2276.021484 2898.916504,2276.021484 C2897.452637,2283.385986 2902.216553,2283.388916 2905.924072,2283.848145 C2912.177490,2284.622314 2918.512207,2284.733154 2924.769287,2285.483887 C2933.254639,2286.501709 2937.165039,2289.843018 2938.256592,2296.400879 C2939.437500,2303.493408 2936.820557,2309.859863 2930.087646,2313.087891 C2916.520020,2319.593018 2902.198242,2319.658691 2888.337891,2314.681152 C2878.476562,2311.139893 2878.151123,2302.957520 2886.412109,2293.253174 C2881.241699,2282.833740 2881.241699,2282.833740 2890.498291,2272.867188 C2889.469727,2271.630859 2888.322266,2270.433838 2887.381836,2269.092041 C2881.417725,2260.584961 2883.338867,2251.120117 2892.553467,2246.404297 C2896.595703,2244.335693 2901.382812,2243.723145 2906.722656,2242.438477 M2894.177979,2302.406738 C2899.486816,2307.843018 2914.594971,2310.114258 2920.649170,2306.095947 C2922.093262,2305.137451 2923.877197,2302.657959 2923.519043,2301.484131 C2922.954346,2299.634277 2920.814453,2297.098633 2919.155029,2296.951172 C2911.923096,2296.308350 2904.617188,2296.221680 2897.356201,2296.467529 C2896.179199,2296.507324 2895.093262,2299.241699 2894.177979,2302.406738 M2916.897705,2262.081543 C2916.737549,2259.843018 2917.140625,2257.362305 2916.302490,2255.415527 C2914.430908,2251.067627 2909.801514,2249.160156 2905.617920,2250.393066 C2901.457031,2251.619629 2899.085205,2255.676270 2899.568115,2260.566650 C2899.931641,2264.249756 2901.745117,2266.930664 2905.298096,2267.841064 C2909.853516,2269.008057 2913.851562,2268.033203 2916.897705,2262.081543 z"/><path fill="#EBB443" opacity="1.000000" stroke="none" d=" M2407.668213,2224.575195 C2412.554688,2224.575439 2416.488770,2224.575439 2421.150879,2224.575439 C2421.150879,2229.285400 2421.150879,2233.069580 2421.150879,2237.958984 C2410.345459,2237.958984 2399.535645,2237.958984 2387.897461,2237.958984 C2387.897461,2243.520264 2387.897461,2248.012451 2387.897461,2253.984863 C2396.198730,2253.984863 2404.617188,2253.984863 2413.580078,2253.984863 C2413.580078,2259.260742 2413.580078,2263.072754 2413.580078,2267.978271 C2405.119141,2267.978271 2396.946289,2267.978271 2387.744629,2267.978271 C2387.504639,2273.441650 2387.309570,2277.879639 2387.059570,2283.570312 C2398.598633,2283.570312 2409.385010,2283.570312 2421.309814,2283.570312 C2421.540283,2288.493408 2421.717529,2292.281982 2421.887939,2295.922363 C2414.635498,2298.318848 2384.175293,2298.872314 2370.438721,2296.918213 C2370.438721,2273.292236 2370.438721,2249.562988 2370.438721,2224.574707 C2382.939453,2224.574707 2394.827637,2224.574707 2407.668213,2224.575195 z"/><path fill="#F0B743" opacity="1.000000" stroke="none" d=" M1774.527344,2426.028809 C1780.915039,2404.239014 1787.533447,2383.314941 1793.776855,2362.279541 C1795.229126,2357.386475 1797.350952,2354.766602 1802.736328,2355.200928 C1806.683716,2355.519531 1810.677246,2355.263428 1815.913452,2355.263428 C1823.265015,2379.067627 1830.575317,2402.738281 1838.190063,2427.394287 C1831.884766,2427.394287 1826.476074,2427.394287 1821.075317,2427.394287 C1815.114990,2414.249512 1815.114746,2414.234375 1800.162476,2414.483643 C1797.871948,2414.522217 1795.585083,2414.778809 1792.762451,2414.971191 C1791.176758,2418.973145 1789.613037,2422.919678 1787.499878,2428.253418 C1783.389404,2427.806885 1779.005371,2427.330566 1774.527344,2426.028809 M1811.555542,2398.661377 C1809.509644,2391.456543 1808.729004,2383.763428 1803.369141,2375.613281 C1800.713501,2384.983154 1798.620239,2392.368652 1795.998169,2401.620117 C1802.112305,2400.982422 1806.512817,2400.523438 1811.555542,2398.661377 z"/><path fill="#EDB543" opacity="1.000000" stroke="none" d=" M1988.996338,2275.902832 C1988.996582,2258.662842 1988.996582,2242.407959 1988.996582,2225.374512 C1994.310181,2225.374512 1998.442871,2225.374512 2003.760254,2225.374512 C2004.270752,2232.136230 2004.799805,2239.144775 2005.387451,2246.929199 C2009.046631,2245.391602 2011.661133,2244.022949 2014.435059,2243.177002 C2023.380737,2240.449463 2033.175537,2245.463135 2034.587280,2254.288330 C2036.849609,2268.430420 2035.265503,2282.682129 2035.642822,2297.378418 C2029.772339,2297.378418 2025.255005,2297.378418 2019.666626,2297.378418 C2019.666626,2288.262695 2019.695190,2279.655029 2019.651978,2271.047852 C2019.635254,2267.720459 2020.091919,2264.198486 2019.150024,2261.128174 C2018.385986,2258.636963 2015.824219,2254.885498 2014.110840,2254.912842 C2011.401367,2254.956299 2007.790161,2257.096680 2006.305664,2259.450684 C2004.695557,2262.003418 2004.732788,2265.809082 2004.665894,2269.081055 C2004.475830,2278.367676 2004.599243,2287.660645 2004.599243,2297.416016 C1999.359985,2297.416016 1995.122070,2297.416016 1990.268555,2297.416016 C1987.842773,2290.684814 1989.500488,2283.686279 1988.996338,2275.902832 z"/><path fill="#E8B142" opacity="1.000000" stroke="none" d=" M2300.202637,2266.654297 C2300.203369,2277.201172 2300.203369,2286.829102 2300.203369,2297.070557 C2294.042969,2298.257324 2288.105225,2299.774658 2283.983154,2294.546387 C2278.947998,2296.413818 2274.473877,2298.894531 2269.724609,2299.653564 C2261.469482,2300.972412 2254.451660,2296.571533 2252.069336,2289.757812 C2249.321533,2281.898926 2252.451660,2273.425537 2260.231445,2269.353271 C2263.688477,2267.543457 2267.718506,2266.733887 2271.567139,2265.792725 C2275.406494,2264.853760 2279.344482,2264.318115 2283.192383,2263.614258 C2284.647217,2258.755859 2283.891602,2254.868652 2279.596924,2253.066406 C2272.827881,2250.225586 2269.400635,2255.477539 2265.963135,2260.293945 C2261.855469,2259.738770 2258.030762,2259.221924 2254.194580,2258.703613 C2256.034668,2247.441162 2265.817383,2241.522705 2279.994385,2242.446533 C2295.317383,2243.444824 2300.018555,2248.862793 2300.202637,2266.654297 M2271.173340,2276.149414 C2270.382324,2277.193359 2269.260742,2278.124512 2268.858887,2279.301025 C2267.287109,2283.902832 2268.625000,2287.762207 2272.117676,2289.417480 C2275.442871,2290.992676 2279.992920,2289.473877 2282.185303,2285.459961 C2284.375732,2281.449951 2285.997070,2277.120361 2282.652344,2271.962158 C2279.188232,2273.072754 2275.810059,2274.156006 2271.173340,2276.149414 z"/><path fill="#E9B242" opacity="1.000000" stroke="none" d=" M2140.011719,2404.810303 C2140.009033,2412.676270 2140.009033,2419.661133 2140.009033,2427.133789 C2133.850586,2428.842041 2127.977295,2429.855713 2124.255615,2425.299072 C2117.893311,2427.091064 2112.363281,2429.608154 2106.681641,2430.016113 C2098.920898,2430.573730 2093.374512,2425.991943 2091.539551,2419.509033 C2089.440674,2412.094971 2092.139893,2404.330322 2099.111572,2400.647461 C2103.426025,2398.368164 2108.447266,2397.351562 2113.229736,2396.058350 C2116.676514,2395.126709 2120.252686,2394.674072 2123.489258,2394.061279 C2124.459717,2388.677490 2123.292236,2384.960449 2118.795898,2383.461182 C2112.448242,2381.344727 2109.147705,2386.053711 2105.912842,2390.578125 C2101.761230,2390.145996 2097.882568,2389.742188 2093.449707,2389.280762 C2093.498291,2382.177979 2097.465576,2378.432617 2102.818115,2376.176025 C2111.379150,2372.566406 2120.242432,2372.114990 2129.210938,2374.974365 C2136.072998,2377.161865 2139.723389,2381.776123 2139.960205,2388.933105 C2140.125488,2393.927002 2140.006348,2398.930176 2140.011719,2404.810303 M2116.478760,2420.298828 C2124.428467,2414.595215 2125.275879,2412.375488 2122.819092,2402.282227 C2119.697510,2403.240479 2116.479980,2403.880615 2113.577148,2405.208740 C2110.120361,2406.790283 2107.418457,2409.470947 2107.785889,2413.661621 C2108.145752,2417.768311 2110.504639,2420.310791 2116.478760,2420.298828 z"/><path fill="#E9B242" opacity="1.000000" stroke="none" d=" M2055.094238,2246.756104 C2064.507568,2242.194580 2073.552490,2241.152100 2082.919434,2244.113281 C2090.461670,2246.497559 2094.056641,2250.647461 2094.247559,2258.639648 C2094.549072,2271.248779 2094.327637,2283.870605 2094.327637,2297.153076 C2088.556152,2298.082275 2082.866455,2299.732910 2077.905762,2294.157471 C2074.785889,2295.714355 2071.710449,2297.687012 2068.353516,2298.840820 C2059.144043,2302.007080 2049.483154,2298.044678 2046.467407,2290.192871 C2043.093506,2281.408203 2047.280640,2272.169434 2056.809570,2268.233398 C2060.142090,2266.856934 2063.854248,2266.371094 2067.416504,2265.586182 C2070.921387,2264.814209 2074.456299,2264.178223 2077.783203,2263.520996 C2078.670654,2258.305176 2077.986572,2254.417725 2073.376221,2252.837646 C2066.930908,2250.628174 2063.653809,2255.190918 2060.594727,2260.258789 C2056.535156,2259.783691 2052.651123,2259.329102 2048.350830,2258.825928 C2047.633057,2253.132080 2050.625000,2249.920898 2055.094238,2246.756104 M2070.505615,2289.925781 C2078.583496,2286.699463 2079.398926,2280.382324 2078.000977,2271.951416 C2074.383545,2272.856934 2070.731445,2272.874512 2068.323730,2274.614258 C2065.677979,2276.525879 2063.025879,2279.815674 2062.471680,2282.883301 C2061.779785,2286.712646 2064.642822,2289.597412 2070.505615,2289.925781 z"/><path fill="#E9B242" opacity="1.000000" stroke="none" d=" M2123.804688,2287.580078 C2123.593506,2291.403564 2123.384766,2294.291260 2123.163818,2297.347656 C2117.801758,2297.347656 2113.271484,2297.347656 2108.274902,2297.347656 C2108.274902,2279.902100 2108.274902,2263.029297 2108.274902,2245.734863 C2114.323242,2243.611328 2119.838867,2242.952881 2124.242920,2247.597412 C2128.416992,2245.811768 2132.186523,2243.303223 2136.256836,2242.638428 C2145.691162,2241.097656 2153.574463,2247.137207 2154.071533,2256.893799 C2154.745361,2270.123047 2154.239014,2283.412598 2154.239014,2297.293457 C2149.218750,2297.293457 2144.727783,2297.293457 2138.860352,2297.293457 C2138.860352,2289.247559 2138.873779,2281.366943 2138.854736,2273.486328 C2138.845947,2269.828125 2138.935059,2266.158691 2138.686523,2262.514404 C2138.421143,2258.623535 2136.988770,2255.025879 2132.624023,2254.538574 C2127.674561,2253.986572 2125.290039,2257.672363 2124.620361,2261.760254 C2123.820557,2266.640869 2123.986572,2271.686768 2123.835449,2276.664062 C2123.734619,2279.988281 2123.810303,2283.317627 2123.804688,2287.580078 z"/><path fill="#EDB543" opacity="1.000000" stroke="none" d=" M2841.507324,2294.892090 C2836.953857,2299.627441 2832.054199,2297.455566 2826.583008,2297.508789 C2826.583008,2279.933105 2826.583008,2262.856445 2826.583008,2245.493408 C2832.571045,2244.135010 2837.992188,2242.804688 2842.736572,2248.452148 C2844.542236,2247.219727 2846.302734,2245.791992 2848.258545,2244.720703 C2858.841064,2238.925537 2871.197510,2244.500977 2872.064697,2256.444092 C2873.043457,2269.924072 2872.290039,2283.529541 2872.290039,2297.479736 C2867.325439,2297.479736 2863.081787,2297.479736 2857.466064,2297.479736 C2857.381592,2290.436523 2857.289551,2283.604248 2857.220947,2276.771973 C2857.174072,2272.111328 2857.358643,2267.437988 2857.071777,2262.792969 C2856.807617,2258.518066 2855.151123,2254.645020 2850.215820,2254.457520 C2845.384033,2254.273926 2843.305176,2257.981201 2842.389160,2262.095947 C2841.818115,2264.661133 2841.843506,2267.384521 2841.811768,2270.039551 C2841.716309,2278.030029 2841.724121,2286.021729 2841.507324,2294.892090 z"/><path fill="#E8B142" opacity="1.000000" stroke="none" d=" M2479.119629,2262.827148 C2479.132812,2274.652344 2479.132812,2285.573730 2479.132812,2297.206543 C2473.743164,2297.206543 2469.279541,2297.206543 2463.709717,2297.206543 C2463.568115,2292.778076 2463.359131,2288.266846 2463.294434,2283.753418 C2463.189697,2276.438477 2463.437744,2269.107910 2463.024170,2261.812988 C2462.808105,2258.006104 2460.954102,2254.581299 2456.374756,2254.485352 C2452.463623,2254.403076 2450.204590,2257.073486 2449.417725,2260.491211 C2448.608154,2264.008545 2448.332764,2267.701904 2448.266357,2271.326416 C2448.109863,2279.883057 2448.216309,2288.444580 2448.216309,2297.347168 C2442.493408,2297.347168 2438.000488,2297.347168 2433.071289,2297.347168 C2432.750244,2294.917969 2432.284912,2293.003174 2432.277100,2291.085938 C2432.216309,2276.164062 2432.243652,2261.241943 2432.243652,2246.277588 C2438.818359,2243.333496 2444.226562,2243.197510 2448.472168,2247.381104 C2453.513672,2245.618652 2458.151611,2242.547607 2462.684082,2242.696533 C2474.221680,2243.075195 2478.894775,2248.440430 2479.119629,2262.827148 z"/><path fill="#E8B142" opacity="1.000000" stroke="none" d=" M2626.118164,2252.512939 C2628.979004,2267.768066 2627.240967,2282.259277 2627.665039,2297.337158 C2622.057373,2297.337158 2617.573242,2297.337158 2611.816406,2297.337158 C2611.816406,2288.508057 2611.825439,2279.985596 2611.811279,2271.463135 C2611.806396,2268.474609 2611.931641,2265.468750 2611.661377,2262.501465 C2611.307617,2258.618164 2609.734375,2255.101807 2605.451416,2254.605713 C2600.565918,2254.039795 2598.243652,2257.573730 2597.308594,2261.703369 C2596.584717,2264.899170 2596.504639,2268.280029 2596.461182,2271.582764 C2596.351562,2279.855469 2596.425049,2288.130615 2596.425049,2297.163330 C2591.217773,2297.163330 2586.776611,2297.163330 2582.273926,2297.163330 C2579.994385,2290.745117 2579.396973,2258.839600 2581.442871,2245.779297 C2587.028076,2243.547852 2592.467041,2242.922607 2597.229980,2248.048584 C2611.315186,2239.667236 2618.400146,2240.587646 2626.118164,2252.512939 z"/><path fill="#E9B242" opacity="1.000000" stroke="none" d=" M1875.025391,2286.681641 C1870.729614,2278.917969 1870.897949,2271.227539 1872.219727,2263.663818 C1874.642090,2249.802490 1888.423950,2240.237549 1901.560303,2242.810547 C1916.034180,2245.645508 1924.060669,2258.022217 1921.078735,2274.001465 C1910.718628,2274.001465 1900.177734,2274.001465 1889.816895,2274.001465 C1888.286255,2282.599365 1889.768066,2286.570068 1894.910889,2288.905518 C1900.237671,2291.324219 1903.112183,2289.697510 1910.039795,2279.899902 C1913.431152,2280.500977 1917.201416,2281.169189 1921.668579,2281.960938 C1918.540405,2292.340332 1912.232910,2298.027344 1902.662231,2299.494873 C1891.196655,2301.253174 1881.642700,2297.776855 1875.025391,2286.681641 M1904.020386,2254.738525 C1894.459106,2250.197266 1891.080566,2252.044922 1888.964722,2263.603027 C1894.758545,2263.603027 1900.433960,2263.603027 1907.163208,2263.603027 C1906.316162,2260.653320 1905.636353,2258.285645 1904.020386,2254.738525 z"/><path fill="#E8B142" opacity="1.000000" stroke="none" d=" M2681.322266,2248.562744 C2688.207520,2255.693359 2690.746338,2263.539795 2689.520264,2273.760254 C2678.588135,2273.760254 2667.806885,2273.760254 2657.206787,2273.760254 C2655.878662,2283.281738 2657.629395,2287.471924 2663.375977,2289.286377 C2671.207520,2291.759766 2673.608887,2285.332520 2677.147705,2279.878418 C2680.943359,2280.533447 2684.689453,2281.180176 2688.545166,2281.845703 C2684.714844,2294.551270 2677.338623,2299.980225 2665.037598,2299.876953 C2652.798096,2299.773926 2642.620361,2292.512207 2640.414062,2280.697754 C2639.231934,2274.368164 2639.492432,2267.349854 2640.891846,2261.039551 C2644.444092,2245.022705 2665.624512,2235.889648 2681.322266,2248.562744 M2672.074463,2263.983154 C2676.344238,2260.632812 2673.767822,2257.176270 2671.321289,2254.970703 C2669.431885,2253.267822 2665.818359,2252.185547 2663.348389,2252.686523 C2658.149414,2253.740723 2656.028809,2257.768799 2656.571533,2264.221436 C2661.249512,2264.221436 2665.798828,2264.221436 2672.074463,2263.983154 z"/><path fill="#E8B142" opacity="1.000000" stroke="none" d=" M2726.925293,2289.206543 C2729.962891,2286.177979 2732.291016,2283.468750 2735.293213,2279.975342 C2738.384766,2280.514893 2742.131348,2281.168701 2745.872314,2281.821533 C2742.584961,2300.403809 2720.984375,2303.291504 2710.010742,2296.920654 C2698.996826,2290.526367 2695.400146,2280.123291 2696.583984,2267.981934 C2697.701172,2256.520752 2703.080566,2247.829102 2714.481689,2243.943115 C2728.566895,2239.142090 2742.632324,2246.814697 2746.096680,2261.244629 C2746.989014,2264.960205 2747.072754,2268.870117 2747.687988,2274.035156 C2735.750488,2274.035156 2724.985107,2274.035156 2714.342773,2274.035156 C2713.416260,2286.182861 2715.605713,2288.791748 2726.925293,2289.206543 M2731.667480,2260.001953 C2727.929199,2253.027588 2725.299072,2251.054443 2720.727783,2252.520752 C2715.674561,2254.141846 2713.274658,2257.690674 2714.145264,2263.114502 C2724.938232,2265.165771 2725.987061,2265.074463 2731.667480,2260.001953 z"/><path fill="#EDB543" opacity="1.000000" stroke="none" d=" M2310.992432,2421.147217 C2311.004883,2412.906250 2311.055420,2405.582031 2311.012939,2398.258301 C2310.999268,2395.938721 2311.388428,2393.290283 2310.423584,2391.385010 C2309.197754,2388.963623 2307.129395,2386.077393 2304.796387,2385.316162 C2301.253174,2384.160156 2298.296631,2386.848877 2297.214844,2390.232178 C2296.224609,2393.329346 2295.914062,2396.737549 2295.849609,2400.019287 C2295.675049,2408.938232 2295.789795,2417.863037 2295.789795,2427.477051 C2290.344482,2427.477051 2285.894043,2427.477051 2280.675293,2427.477051 C2280.675293,2410.513184 2280.675293,2393.691406 2280.675293,2376.501221 C2286.397949,2374.151855 2291.912598,2373.918457 2296.535400,2378.306641 C2300.371582,2376.592041 2303.828613,2374.247803 2307.598633,2373.516357 C2317.655273,2371.564209 2325.524414,2377.278809 2326.145020,2387.839844 C2326.903076,2400.738037 2326.325439,2413.714844 2326.325439,2426.561035 C2314.546631,2429.738281 2312.910645,2429.237549 2310.992432,2421.147217 z"/><path fill="#E8B142" opacity="1.000000" stroke="none" d=" M1919.735596,2420.295410 C1922.462524,2418.183594 1925.662476,2416.364258 1925.976074,2414.138184 C1926.513916,2410.322021 1922.540527,2410.037354 1919.630127,2409.441162 C1915.083496,2408.509033 1910.514038,2407.678955 1905.991821,2406.642090 C1893.954224,2403.881104 1891.709961,2389.916748 1897.372803,2381.823242 C1902.722290,2374.177490 1910.922485,2372.572021 1919.557373,2373.325928 C1927.939941,2374.057373 1935.006104,2377.107178 1937.578125,2386.752441 C1932.648438,2390.058594 1928.507935,2391.786865 1923.853882,2386.004883 C1920.921021,2382.361572 1916.229126,2381.851807 1912.016968,2384.130371 C1910.591431,2384.901611 1909.408813,2387.169434 1909.245483,2388.862305 C1909.134766,2390.009521 1910.748291,2391.885010 1912.032104,2392.476074 C1914.071777,2393.415527 1916.471436,2393.600830 1918.734619,2394.020508 C1921.995483,2394.624756 1925.316895,2394.964111 1928.529663,2395.753906 C1935.343872,2397.428955 1939.527344,2401.759277 1940.532715,2408.788086 C1941.572754,2416.059814 1938.844238,2421.939453 1932.993774,2426.130371 C1924.946899,2431.895264 1907.363281,2431.884033 1899.760010,2425.831543 C1896.934570,2423.582031 1895.228394,2419.926758 1892.548218,2416.282471 C1899.321533,2413.267334 1903.930664,2411.534668 1908.938843,2417.216553 C1910.919434,2419.463379 1915.508789,2419.410400 1919.735596,2420.295410 z"/><path fill="#EAB242" opacity="1.000000" stroke="none" d=" M1950.770264,2384.955078 C1959.859985,2373.820312 1969.259277,2370.794922 1980.955444,2374.743408 C1990.799805,2378.066650 1997.269897,2387.353516 1998.076416,2399.317871 C1999.092651,2414.390381 1990.973633,2426.624756 1977.926880,2429.680908 C1963.947998,2432.955322 1950.691528,2424.850830 1947.760864,2410.788818 C1945.975952,2402.224365 1945.979126,2393.615479 1950.770264,2384.955078 M1971.220459,2382.929443 C1969.777344,2383.702881 1967.979736,2384.157959 1966.951172,2385.303955 C1961.924561,2390.903320 1961.790771,2411.906494 1966.572388,2417.582275 C1969.989746,2421.638672 1975.054688,2421.421875 1978.398438,2417.076172 C1982.923462,2411.195068 1982.714722,2391.223389 1977.810059,2385.606689 C1976.622681,2384.247070 1974.433472,2383.762207 1971.220459,2382.929443 z"/><path fill="#E8B142" opacity="1.000000" stroke="none" d=" M1863.133789,2408.500488 C1859.713867,2407.848633 1857.065918,2407.445068 1854.556641,2406.619385 C1843.749756,2403.065186 1839.442383,2390.964844 1845.976929,2381.784668 C1851.647095,2373.818359 1860.225098,2372.399170 1869.153564,2373.427734 C1877.090576,2374.341797 1883.853760,2377.471680 1885.948608,2386.318604 C1878.429565,2390.754639 1878.364502,2390.831055 1872.679443,2385.988037 C1869.341309,2383.144287 1865.567993,2381.997314 1861.644043,2383.668457 C1859.922241,2384.401611 1857.843994,2386.995117 1857.958618,2388.598389 C1858.077637,2390.260010 1860.410400,2392.645752 1862.205444,2393.134766 C1866.972168,2394.433350 1872.086792,2394.453613 1876.854370,2395.750000 C1888.834717,2399.006592 1893.278198,2411.747070 1885.930664,2421.706055 C1879.589722,2430.300293 1870.151489,2430.988525 1860.706665,2430.064209 C1852.164917,2429.228516 1844.619507,2426.144043 1841.751465,2416.130615 C1847.501221,2412.911133 1852.245972,2411.524414 1857.510010,2417.349365 C1861.292236,2421.534424 1868.314697,2421.537354 1872.209473,2418.785156 C1876.017700,2416.094238 1875.891235,2412.084229 1871.705322,2410.345459 C1869.294556,2409.344238 1866.558960,2409.125488 1863.133789,2408.500488 z"/><path fill="#EAB242" opacity="1.000000" stroke="none" d=" M2009.881348,2417.949219 C2004.761719,2408.123779 2004.820312,2398.636230 2008.410400,2389.231934 C2012.434326,2378.691406 2022.157471,2372.775879 2033.667236,2373.233643 C2044.586914,2373.668457 2051.851562,2378.990479 2055.415039,2389.280762 C2055.716797,2390.151855 2055.455078,2391.218018 2055.455078,2393.167236 C2051.305664,2393.762207 2047.182617,2394.353516 2042.860352,2394.973145 C2041.626465,2392.703857 2040.864990,2390.886475 2039.747803,2389.323242 C2035.396973,2383.235107 2027.698120,2383.399170 2026.013306,2390.348145 C2024.273071,2397.525879 2024.840698,2405.409424 2025.426147,2412.903809 C2025.576050,2414.824219 2029.494507,2417.642578 2031.877197,2417.855225 C2034.197876,2418.062012 2037.159302,2415.859375 2039.104980,2413.961426 C2040.627686,2412.476074 2041.027588,2409.839600 2042.387939,2406.623291 C2046.700317,2407.207275 2051.024658,2407.792969 2055.358398,2408.379883 C2053.621094,2420.942627 2048.434570,2427.378906 2037.925659,2429.555176 C2026.493042,2431.922852 2016.784424,2429.013672 2009.881348,2417.949219 z"/><path fill="#EAB242" opacity="1.000000" stroke="none" d=" M1945.577881,2245.245605 C1962.609985,2239.655273 1974.863647,2244.422852 1980.004761,2258.094971 C1980.331543,2258.963867 1980.138672,2260.028076 1980.184570,2260.941895 C1970.608154,2265.787842 1970.245728,2265.721924 1964.177856,2258.116699 C1959.819092,2252.653564 1953.695435,2253.012207 1950.748169,2259.434814 C1947.278442,2266.995605 1947.432617,2275.157715 1950.306396,2282.792725 C1952.671509,2289.076660 1959.973633,2289.426270 1963.664795,2283.847412 C1965.100342,2281.678223 1965.991455,2279.148926 1967.536621,2275.939941 C1971.641113,2276.541260 1975.732422,2277.140869 1979.759399,2277.730957 C1979.243652,2288.991943 1974.031860,2295.769043 1964.173096,2298.692627 C1953.140869,2301.964355 1942.014648,2298.124756 1935.850708,2289.387939 C1927.636230,2277.745361 1929.097778,2252.539551 1945.577881,2245.245605 z"/><path fill="#EAB242" opacity="1.000000" stroke="none" d=" M2242.015625,2285.842041 C2233.928223,2298.154785 2224.043701,2302.256592 2212.130127,2298.801514 C2200.971680,2295.565186 2194.003174,2285.356689 2193.869141,2272.050049 C2193.653564,2250.668945 2212.029297,2236.740234 2230.388672,2244.443115 C2237.912109,2247.599365 2242.710205,2252.971924 2243.869141,2262.372803 C2239.343262,2263.076904 2235.275391,2263.709717 2230.975098,2264.378662 C2229.689453,2262.062012 2228.920654,2260.239990 2227.778320,2258.694824 C2223.010254,2252.246826 2215.568848,2252.836426 2213.569824,2260.596436 C2211.890137,2267.115234 2212.267334,2274.382812 2212.995605,2281.184082 C2213.249023,2283.550537 2216.942383,2286.404541 2219.669922,2287.436035 C2223.178711,2288.762939 2225.894531,2286.059570 2227.562256,2282.886230 C2228.624512,2280.865234 2229.486572,2278.738525 2230.787354,2275.897461 C2234.983887,2276.523438 2239.074219,2277.133789 2243.906982,2277.854736 C2243.251465,2280.848877 2242.779297,2283.006104 2242.015625,2285.842041 z"/><path fill="#EAB242" opacity="1.000000" stroke="none" d=" M2171.547852,2401.909668 C2171.544434,2403.858643 2171.534180,2404.857178 2171.545166,2405.855957 C2171.666992,2417.069336 2171.667969,2417.069336 2182.294678,2419.594238 C2184.055176,2428.746094 2183.317139,2429.854492 2175.195068,2430.254639 C2160.883789,2430.959473 2155.796143,2426.247559 2155.531982,2411.795166 C2155.392822,2404.178711 2155.507568,2396.557617 2155.507568,2389.284424 C2146.891846,2384.936279 2146.891846,2384.936279 2147.773438,2376.280273 C2149.109619,2375.898438 2150.634766,2375.482666 2152.146973,2375.023926 C2153.370850,2374.652832 2154.579102,2374.230469 2156.053223,2373.745605 C2156.663086,2368.995361 2157.247314,2364.446289 2157.966309,2358.846436 C2162.159180,2358.402588 2166.196289,2357.975342 2170.963867,2357.470459 C2171.354980,2363.476807 2171.671387,2368.336426 2172.028809,2373.824463 C2175.206055,2374.549561 2178.300781,2375.255859 2182.175537,2376.140381 C2182.310303,2379.179199 2182.451172,2382.352783 2182.604248,2385.803955 C2178.852051,2386.559570 2175.686035,2387.197021 2171.550537,2388.030029 C2171.550537,2392.422363 2171.550537,2396.690918 2171.547852,2401.909668 z"/><path fill="#EAB242" opacity="1.000000" stroke="none" d=" M2313.612793,2254.031250 C2313.613037,2244.098633 2313.613037,2235.158203 2313.613037,2225.407471 C2319.272949,2225.407471 2323.978516,2225.407471 2329.285156,2225.407471 C2329.285156,2249.434814 2329.285156,2272.915283 2329.285156,2297.160645 C2324.160645,2297.160645 2319.390381,2297.160645 2313.612305,2297.160645 C2313.612305,2282.932373 2313.612305,2268.978027 2313.612793,2254.031250 z"/><path fill="#E5AE42" opacity="1.000000" stroke="none" d=" M2773.666992,2296.026611 C2768.891113,2297.260254 2764.423584,2297.689209 2759.345703,2298.176514 C2759.345703,2279.904053 2759.345703,2262.855469 2759.345703,2245.574219 C2765.145508,2244.154785 2770.214355,2242.734375 2774.424805,2247.522705 C2778.347900,2245.723389 2782.256348,2243.930908 2787.345215,2241.596924 C2787.345215,2247.915771 2787.345215,2252.427734 2787.345215,2257.402832 C2776.061523,2259.362793 2773.886475,2267.469482 2774.147217,2277.315918 C2774.304932,2283.278809 2774.046875,2289.252930 2773.666992,2296.026611 z"/><path fill="#EAB242" opacity="1.000000" stroke="none" d=" M2080.387695,2417.287354 C2080.247314,2421.141357 2080.107178,2424.085205 2079.939697,2427.608398 C2074.995117,2427.608398 2070.460693,2427.608398 2065.911865,2427.608398 C2063.835938,2420.750732 2063.413086,2387.233398 2065.393799,2375.806641 C2069.772217,2375.806641 2074.285889,2375.806641 2080.182861,2375.806641 C2080.251465,2389.351074 2080.319824,2402.864258 2080.387695,2417.287354 z"/><path fill="#E8B142" opacity="1.000000" stroke="none" d=" M2796.324951,2287.511230 C2796.323730,2273.019531 2796.323730,2259.473633 2796.323730,2245.179199 C2801.912109,2245.179199 2806.345947,2245.179199 2811.769775,2245.179199 C2812.862793,2262.550049 2812.292969,2279.677979 2812.140137,2297.370850 C2806.850342,2297.370850 2802.329834,2297.370850 2797.004395,2297.370850 C2796.765869,2294.236816 2796.546143,2291.346680 2796.324951,2287.511230 z"/><path fill="#F0B743" opacity="1.000000" stroke="none" d=" M2563.558105,2297.860840 C2559.797607,2297.714600 2556.897705,2297.551514 2553.284424,2297.348389 C2552.771729,2279.612549 2552.906494,2262.537842 2553.310059,2244.973389 C2558.932129,2244.973389 2563.139404,2244.973389 2567.717285,2244.973389 C2568.166260,2246.761475 2568.878418,2248.301758 2568.889893,2249.847412 C2568.991943,2263.476562 2569.002197,2277.106934 2568.959473,2290.736816 C2568.949463,2293.972656 2569.536621,2297.784912 2563.558105,2297.860840 z"/><path fill="#DCA741" opacity="1.000000" stroke="none" d=" M2185.364258,2262.185547 C2185.364502,2274.407959 2185.364502,2285.658203 2185.364502,2297.444824 C2179.586914,2297.444824 2175.056885,2297.444824 2170.579590,2297.444824 C2168.332764,2290.160889 2167.905273,2257.255615 2170.003662,2245.166504 C2174.559814,2245.166504 2179.281982,2245.166504 2185.363770,2245.166504 C2185.363770,2250.755859 2185.363770,2255.984619 2185.364258,2262.185547 z"/><path fill="#F9BE44" opacity="1.000000" stroke="none" d=" M2196.698730,2375.249512 C2200.139893,2375.359375 2202.779785,2375.487061 2206.149414,2375.649902 C2206.149414,2393.047852 2206.149414,2410.140137 2206.149414,2427.542969 C2201.145752,2427.542969 2196.625244,2427.542969 2191.158691,2427.542969 C2191.158691,2411.044678 2191.046143,2395.098389 2191.363770,2379.160400 C2191.390381,2377.833008 2194.318115,2376.563477 2196.698730,2375.249512 z"/><path fill="#D4A341" opacity="1.000000" stroke="none" d=" M2206.833740,2366.653320 C2201.861084,2368.154785 2197.156006,2368.900879 2191.519531,2369.794189 C2191.519531,2363.780518 2191.519531,2359.330078 2191.519531,2353.974609 C2196.370605,2353.974609 2201.103027,2353.974609 2207.101074,2353.974609 C2207.101074,2358.172119 2207.101074,2362.034912 2206.833740,2366.653320 z"/><path fill="#D4A341" opacity="1.000000" stroke="none" d=" M2168.711914,2231.565430 C2169.028564,2228.235352 2169.350342,2225.716797 2169.713867,2222.872559 C2174.905762,2222.872559 2179.387695,2222.872559 2184.662598,2222.872559 C2184.662598,2227.835693 2184.662598,2232.274902 2184.662598,2237.735840 C2179.977051,2237.735840 2175.192383,2237.970459 2170.479492,2237.496094 C2169.728027,2237.420410 2169.296631,2234.163330 2168.711914,2231.565430 z"/><path fill="#D4A341" opacity="1.000000" stroke="none" d=" M2555.385742,2222.873291 C2560.002197,2222.568604 2563.858398,2222.568604 2568.473145,2222.568604 C2568.473145,2227.824219 2568.473145,2232.258057 2568.473145,2237.579102 C2563.669434,2237.579102 2558.720947,2237.579102 2552.165283,2237.579102 C2553.054199,2232.376465 2553.840088,2227.777344 2555.385742,2222.873291 z"/><path fill="#DCA741" opacity="1.000000" stroke="none" d=" M2080.551758,2360.293701 C2080.397705,2363.310059 2080.240723,2365.550049 2080.037598,2368.448730 C2074.918457,2368.448730 2070.208252,2368.448730 2064.801758,2368.448730 C2064.801758,2363.676270 2064.801758,2359.270996 2064.801758,2354.595459 C2069.510742,2352.338379 2074.357178,2352.526855 2078.959473,2354.278320 C2080.002686,2354.675781 2080.045654,2357.701416 2080.551758,2360.293701 z"/><path fill="#DCA741" opacity="1.000000" stroke="none" d=" M2796.389160,2234.842285 C2796.289551,2230.793457 2796.289551,2227.555176 2796.289551,2223.385742 C2801.737305,2223.385742 2806.390381,2223.385742 2811.751953,2223.385742 C2811.751953,2227.995117 2811.751953,2232.431641 2811.751953,2237.505371 C2806.417725,2237.740234 2801.096436,2241.075195 2796.389160,2234.842285 z"/></g></svg>